<svg width="64" height="64" viewBox="0 0 64 64" fill="none" xmlns="http://www.w3.org/2000/svg">
<rect width="64" height="64" fill="white"/>
<rect x="4" y="34" width="56" height="18" fill="black"/>
<path d="M21.4438 16.5767L18.9175 25H17.7241L20.7012 15.7578H21.4502L21.4438 16.5767ZM23.4878 25L20.9614 16.5767L20.9487 15.7578H21.7041L24.6812 25H23.4878ZM23.4878 21.5786V22.5815H19.0317V21.5786H23.4878ZM30.1846 15.7578H31.3525V22.2642C31.3525 22.9582 31.2192 23.5146 30.9526 23.9336C30.686 24.3525 30.3348 24.6572 29.8989 24.8477C29.4673 25.0339 29.0018 25.127 28.5024 25.127C27.9692 25.127 27.4889 25.0339 27.0615 24.8477C26.6341 24.6572 26.2935 24.3525 26.0396 23.9336C25.7899 23.5146 25.665 22.9582 25.665 22.2642V15.7578H26.8267V22.2642C26.8267 22.7466 26.8944 23.1232 27.0298 23.394C27.1694 23.6649 27.3641 23.8553 27.6138 23.9653C27.8677 24.0754 28.1639 24.1304 28.5024 24.1304C28.8452 24.1304 29.1414 24.0754 29.3911 23.9653C29.645 23.8553 29.8397 23.6649 29.9751 23.394C30.1147 23.1232 30.1846 22.7466 30.1846 22.2642V15.7578ZM36.1069 15.7578V25H34.9517V15.7578H36.1069ZM38.5381 15.7578V16.7607H32.5269V15.7578H38.5381ZM45.7363 19.5791V21.1851C45.7363 21.8368 45.6644 22.4102 45.5205 22.9053C45.3809 23.3962 45.1756 23.8066 44.9048 24.1367C44.634 24.4668 44.3081 24.7144 43.9272 24.8794C43.5464 25.0444 43.1169 25.127 42.6387 25.127C42.1774 25.127 41.7563 25.0444 41.3755 24.8794C40.9946 24.7144 40.6667 24.4668 40.3916 24.1367C40.1165 23.8066 39.9028 23.3962 39.7505 22.9053C39.6024 22.4102 39.5283 21.8368 39.5283 21.1851V19.5791C39.5283 18.9274 39.6024 18.3561 39.7505 17.8652C39.8986 17.3701 40.1102 16.9575 40.3853 16.6274C40.6603 16.2974 40.9883 16.0498 41.3691 15.8848C41.75 15.7155 42.1711 15.6309 42.6323 15.6309C43.1105 15.6309 43.54 15.7155 43.9209 15.8848C44.306 16.0498 44.6318 16.2974 44.8984 16.6274C45.1693 16.9575 45.3766 17.3701 45.5205 17.8652C45.6644 18.3561 45.7363 18.9274 45.7363 19.5791ZM44.5811 21.1851V19.5664C44.5811 19.0586 44.5387 18.6227 44.4541 18.2588C44.3695 17.8906 44.2446 17.5902 44.0796 17.3574C43.9146 17.1247 43.7114 16.9533 43.4702 16.8433C43.229 16.729 42.9497 16.6719 42.6323 16.6719C42.3319 16.6719 42.061 16.729 41.8198 16.8433C41.5828 16.9533 41.3797 17.1247 41.2104 17.3574C41.0412 17.5902 40.91 17.8906 40.8169 18.2588C40.728 18.6227 40.6836 19.0586 40.6836 19.5664V21.1851C40.6836 21.6971 40.728 22.1372 40.8169 22.5054C40.91 22.8693 41.0412 23.1698 41.2104 23.4067C41.384 23.6395 41.5913 23.813 41.8325 23.9272C42.0737 24.0373 42.3424 24.0923 42.6387 24.0923C42.9561 24.0923 43.2354 24.0373 43.4766 23.9272C43.722 23.813 43.9251 23.6395 44.0859 23.4067C44.251 23.1698 44.3737 22.8693 44.4541 22.5054C44.5387 22.1372 44.5811 21.6971 44.5811 21.1851Z" fill="black"/>
<path d="M15.9404 45.061H17.1084C17.0788 45.6958 16.9497 46.2438 16.7212 46.7051C16.4969 47.1621 16.1689 47.5133 15.7373 47.7588C15.3099 48.0042 14.7746 48.127 14.1313 48.127C13.6701 48.127 13.2533 48.036 12.8809 47.854C12.5085 47.672 12.189 47.4118 11.9224 47.0732C11.66 46.7305 11.459 46.32 11.3193 45.8418C11.1797 45.3636 11.1099 44.8262 11.1099 44.2295V42.522C11.1099 41.9295 11.1797 41.3942 11.3193 40.916C11.4632 40.4378 11.6685 40.0295 11.9351 39.6909C12.2059 39.3481 12.5339 39.0858 12.9189 38.9038C13.3083 38.7218 13.7484 38.6309 14.2393 38.6309C14.8402 38.6309 15.348 38.7515 15.7627 38.9927C16.1816 39.2297 16.5033 39.5788 16.7275 40.04C16.9561 40.4971 17.083 41.0578 17.1084 41.7222H15.9404C15.9108 41.2355 15.8346 40.8398 15.7119 40.5352C15.5892 40.2262 15.4072 39.9998 15.166 39.856C14.929 39.7078 14.6201 39.6338 14.2393 39.6338C13.9007 39.6338 13.6066 39.7015 13.3569 39.8369C13.1115 39.9723 12.9084 40.167 12.7476 40.4209C12.591 40.6706 12.4725 40.9731 12.3921 41.3286C12.3159 41.6799 12.2778 42.0734 12.2778 42.5093V44.2295C12.2778 44.6357 12.3096 45.0145 12.373 45.3657C12.4408 45.717 12.5465 46.0259 12.6904 46.2925C12.8385 46.5549 13.0311 46.7601 13.2681 46.9082C13.505 47.0563 13.7928 47.1304 14.1313 47.1304C14.5588 47.1304 14.8973 47.0605 15.147 46.9209C15.3966 46.7812 15.5807 46.5591 15.6992 46.2544C15.8219 45.9497 15.9023 45.5519 15.9404 45.061ZM23.6592 47.0034V48H19.6475V47.0034H23.6592ZM19.8569 38.7578V48H18.689V38.7578H19.8569ZM23.1196 42.7314V43.728H19.6475V42.7314H23.1196ZM23.5957 38.7578V39.7607H19.6475V38.7578H23.5957ZM31.1938 38.7578V48H30.0195L26.3188 40.8716V48H25.1509V38.7578H26.3188L30.0386 45.9053V38.7578H31.1938ZM37.2559 45.6641C37.2559 45.4482 37.2305 45.2578 37.1797 45.0928C37.1289 44.9235 37.04 44.7712 36.9131 44.6357C36.7861 44.5003 36.6084 44.3713 36.3799 44.2485C36.1514 44.1258 35.8615 44.001 35.5103 43.874C35.1294 43.7386 34.7845 43.5884 34.4756 43.4233C34.1667 43.2541 33.9022 43.0615 33.6821 42.8457C33.4663 42.6299 33.2992 42.3823 33.1807 42.103C33.0622 41.8237 33.0029 41.5042 33.0029 41.1445C33.0029 40.7848 33.0643 40.4526 33.187 40.1479C33.314 39.8433 33.4917 39.5788 33.7202 39.3545C33.953 39.126 34.2323 38.9482 34.5581 38.8213C34.884 38.6943 35.2479 38.6309 35.6499 38.6309C36.2508 38.6309 36.7565 38.7642 37.167 39.0308C37.5817 39.2931 37.8949 39.638 38.1064 40.0654C38.318 40.4886 38.4238 40.9414 38.4238 41.4238H37.2559C37.2559 41.0768 37.1987 40.77 37.0845 40.5034C36.9744 40.2326 36.8009 40.021 36.564 39.8687C36.3312 39.7121 36.0265 39.6338 35.6499 39.6338C35.3114 39.6338 35.0321 39.6994 34.812 39.8306C34.5962 39.9618 34.4354 40.1395 34.3296 40.3638C34.228 40.5881 34.1772 40.8441 34.1772 41.1318C34.1772 41.3265 34.2111 41.5042 34.2788 41.665C34.3465 41.8216 34.4502 41.9676 34.5898 42.103C34.7337 42.2384 34.9115 42.3633 35.123 42.4775C35.3389 42.5918 35.5928 42.7018 35.8848 42.8076C36.3376 42.9557 36.7248 43.1208 37.0464 43.3027C37.368 43.4847 37.6304 43.6899 37.8335 43.9185C38.0366 44.1427 38.1847 44.3988 38.2778 44.6865C38.3752 44.9701 38.4238 45.2917 38.4238 45.6514C38.4238 46.028 38.3604 46.3687 38.2334 46.6733C38.1107 46.978 37.9308 47.2383 37.6938 47.4541C37.4569 47.6699 37.1712 47.8371 36.8369 47.9556C36.5026 48.0698 36.126 48.127 35.707 48.127C35.3431 48.127 34.9855 48.0677 34.6343 47.9492C34.2873 47.8307 33.972 47.653 33.6885 47.416C33.4049 47.179 33.1785 46.887 33.0093 46.54C32.84 46.1888 32.7554 45.7826 32.7554 45.3213H33.9233C33.9233 45.6387 33.9699 45.9116 34.063 46.1401C34.1561 46.3644 34.2852 46.5506 34.4502 46.6987C34.6152 46.8468 34.8035 46.9569 35.0151 47.0288C35.231 47.0965 35.4616 47.1304 35.707 47.1304C36.0456 47.1304 36.3291 47.0711 36.5576 46.9526C36.7904 46.8341 36.9639 46.6649 37.0781 46.4448C37.1966 46.2248 37.2559 45.9645 37.2559 45.6641ZM45.9648 42.5791V44.1851C45.9648 44.8368 45.8929 45.4102 45.749 45.9053C45.6094 46.3962 45.4041 46.8066 45.1333 47.1367C44.8625 47.4668 44.5366 47.7144 44.1558 47.8794C43.7749 48.0444 43.3454 48.127 42.8672 48.127C42.4059 48.127 41.9849 48.0444 41.604 47.8794C41.2231 47.7144 40.8952 47.4668 40.6201 47.1367C40.3451 46.8066 40.1313 46.3962 39.979 45.9053C39.8309 45.4102 39.7568 44.8368 39.7568 44.1851V42.5791C39.7568 41.9274 39.8309 41.3561 39.979 40.8652C40.1271 40.3701 40.3387 39.9575 40.6138 39.6274C40.8888 39.2974 41.2168 39.0498 41.5977 38.8848C41.9785 38.7155 42.3996 38.6309 42.8608 38.6309C43.339 38.6309 43.7686 38.7155 44.1494 38.8848C44.5345 39.0498 44.8604 39.2974 45.127 39.6274C45.3978 39.9575 45.6051 40.3701 45.749 40.8652C45.8929 41.3561 45.9648 41.9274 45.9648 42.5791ZM44.8096 44.1851V42.5664C44.8096 42.0586 44.7673 41.6227 44.6826 41.2588C44.598 40.8906 44.4731 40.5902 44.3081 40.3574C44.1431 40.1247 43.9399 39.9533 43.6987 39.8433C43.4575 39.729 43.1782 39.6719 42.8608 39.6719C42.5604 39.6719 42.2896 39.729 42.0483 39.8433C41.8114 39.9533 41.6082 40.1247 41.439 40.3574C41.2697 40.5902 41.1385 40.8906 41.0454 41.2588C40.9565 41.6227 40.9121 42.0586 40.9121 42.5664V44.1851C40.9121 44.6971 40.9565 45.1372 41.0454 45.5054C41.1385 45.8693 41.2697 46.1698 41.439 46.4067C41.6125 46.6395 41.8198 46.813 42.061 46.9272C42.3022 47.0373 42.571 47.0923 42.8672 47.0923C43.1846 47.0923 43.4639 47.0373 43.7051 46.9272C43.9505 46.813 44.1536 46.6395 44.3145 46.4067C44.4795 46.1698 44.6022 45.8693 44.6826 45.5054C44.7673 45.1372 44.8096 44.6971 44.8096 44.1851ZM47.7803 38.7578H50.3638C50.9647 38.7578 51.4683 38.8636 51.8745 39.0752C52.285 39.2868 52.5939 39.5999 52.8013 40.0146C53.0129 40.4251 53.1187 40.9308 53.1187 41.5317C53.1187 41.9549 53.0488 42.3421 52.9092 42.6934C52.7695 43.0404 52.5664 43.3366 52.2998 43.582C52.0332 43.8232 51.7095 44.0031 51.3286 44.1216L51.0112 44.2549H48.707L48.6943 43.2583H50.3511C50.7065 43.2583 51.0028 43.1821 51.2397 43.0298C51.4767 42.8732 51.6545 42.6637 51.7729 42.4014C51.8914 42.139 51.9507 41.8491 51.9507 41.5317C51.9507 41.1763 51.8978 40.8652 51.792 40.5986C51.6862 40.332 51.5169 40.1268 51.2842 39.9829C51.0557 39.8348 50.7489 39.7607 50.3638 39.7607H48.9482V48H47.7803V38.7578ZM52.2173 48L50.3765 43.8105L51.5889 43.8042L53.4678 47.9238V48H52.2173Z" fill="white"/>
</svg>
