<svg width="256" height="256" viewBox="0 0 256 256" fill="none" xmlns="http://www.w3.org/2000/svg">
<rect width="256" height="256" fill="#617054"/>
<path d="M70.3738 79.6C71.2405 79.6333 72.3738 79.6667 73.7738 79.7C75.1738 79.7333 76.5738 79.75 77.9738 79.75C79.5738 79.75 81.1238 79.7333 82.6238 79.7C84.1238 79.6667 85.1905 79.65 85.8238 79.65C89.9572 79.65 93.0405 80.3833 95.0738 81.85C97.1405 83.3167 98.1738 85.2 98.1738 87.5C98.1738 88.6667 97.8238 89.85 97.1238 91.05C96.4238 92.25 95.3405 93.3167 93.8738 94.25C92.4072 95.1833 90.5072 95.8667 88.1738 96.3V96.4C91.3072 96.6333 93.7905 97.2 95.6238 98.1C97.4572 99 98.7738 100.083 99.5738 101.35C100.374 102.617 100.774 103.933 100.774 105.3C100.774 107.4 100.224 109.167 99.1238 110.6C98.0238 112.033 96.4405 113.133 94.3738 113.9C92.3072 114.633 89.8405 115 86.9738 115C86.1738 115 85.0238 114.983 83.5238 114.95C82.0238 114.883 80.2072 114.85 78.0738 114.85C76.6072 114.85 75.1738 114.867 73.7738 114.9C72.3738 114.9 71.2405 114.933 70.3738 115V114C71.4405 113.933 72.2405 113.8 72.7738 113.6C73.3072 113.4 73.6572 113 73.8238 112.4C74.0238 111.8 74.1238 110.9 74.1238 109.7V84.9C74.1238 83.6667 74.0238 82.7667 73.8238 82.2C73.6572 81.6 73.2905 81.2 72.7238 81C72.1905 80.7667 71.4072 80.6333 70.3738 80.6V79.6ZM85.1738 80.6C83.8738 80.6 83.0238 80.8833 82.6238 81.45C82.2572 82.0167 82.0738 83.1667 82.0738 84.9V109.7C82.0738 110.867 82.1572 111.75 82.3238 112.35C82.5238 112.95 82.8572 113.35 83.3238 113.55C83.8238 113.75 84.5572 113.85 85.5238 113.85C87.9238 113.85 89.6738 113.1 90.7738 111.6C91.9072 110.067 92.4738 107.9 92.4738 105.1C92.4738 102.533 91.8238 100.55 90.5238 99.15C89.2572 97.75 87.1405 97.05 84.1738 97.05H79.9238C79.9238 97.05 79.9238 96.9167 79.9238 96.65C79.9238 96.35 79.9238 96.2 79.9238 96.2H84.2238C85.7905 96.2 86.9905 95.8333 87.8238 95.1C88.6572 94.3333 89.2405 93.3333 89.5738 92.1C89.9072 90.8333 90.0738 89.4833 90.0738 88.05C90.0738 85.5833 89.6905 83.7333 88.9238 82.5C88.1572 81.2333 86.9072 80.6 85.1738 80.6ZM116.368 88.45C118.801 88.45 120.934 88.9 122.768 89.8C124.601 90.7 126.034 92.15 127.068 94.15C128.101 96.15 128.618 98.8 128.618 102.1C128.618 105.4 128.101 108.05 127.068 110.05C126.034 112.017 124.601 113.45 122.768 114.35C120.934 115.25 118.801 115.7 116.368 115.7C114.001 115.7 111.884 115.25 110.018 114.35C108.184 113.45 106.734 112.017 105.668 110.05C104.634 108.05 104.118 105.4 104.118 102.1C104.118 98.8 104.634 96.15 105.668 94.15C106.734 92.15 108.184 90.7 110.018 89.8C111.884 88.9 114.001 88.45 116.368 88.45ZM116.368 89.45C115.034 89.45 113.918 90.45 113.018 92.45C112.118 94.4167 111.668 97.6333 111.668 102.1C111.668 106.567 112.118 109.783 113.018 111.75C113.918 113.717 115.034 114.7 116.368 114.7C117.734 114.7 118.851 113.717 119.718 111.75C120.618 109.783 121.068 106.567 121.068 102.1C121.068 97.6333 120.618 94.4167 119.718 92.45C118.851 90.45 117.734 89.45 116.368 89.45ZM144.639 88.45C147.072 88.45 149.206 88.9 151.039 89.8C152.872 90.7 154.306 92.15 155.339 94.15C156.372 96.15 156.889 98.8 156.889 102.1C156.889 105.4 156.372 108.05 155.339 110.05C154.306 112.017 152.872 113.45 151.039 114.35C149.206 115.25 147.072 115.7 144.639 115.7C142.272 115.7 140.156 115.25 138.289 114.35C136.456 113.45 135.006 112.017 133.939 110.05C132.906 108.05 132.389 105.4 132.389 102.1C132.389 98.8 132.906 96.15 133.939 94.15C135.006 92.15 136.456 90.7 138.289 89.8C140.156 88.9 142.272 88.45 144.639 88.45ZM144.639 89.45C143.306 89.45 142.189 90.45 141.289 92.45C140.389 94.4167 139.939 97.6333 139.939 102.1C139.939 106.567 140.389 109.783 141.289 111.75C142.189 113.717 143.306 114.7 144.639 114.7C146.006 114.7 147.122 113.717 147.989 111.75C148.889 109.783 149.339 106.567 149.339 102.1C149.339 97.6333 148.889 94.4167 147.989 92.45C147.122 90.45 146.006 89.45 144.639 89.45ZM169.672 75.85V110.35C169.672 111.75 169.889 112.7 170.322 113.2C170.789 113.7 171.572 113.95 172.672 113.95V115C172.039 114.967 171.106 114.933 169.872 114.9C168.672 114.833 167.439 114.8 166.172 114.8C164.872 114.8 163.556 114.833 162.222 114.9C160.922 114.933 159.939 114.967 159.272 115V113.95C160.439 113.95 161.256 113.7 161.722 113.2C162.222 112.7 162.472 111.75 162.472 110.35V81.85C162.472 80.35 162.239 79.25 161.772 78.55C161.339 77.8167 160.506 77.45 159.272 77.45V76.4C160.339 76.5 161.372 76.55 162.372 76.55C163.739 76.55 165.039 76.5 166.272 76.4C167.506 76.2667 168.639 76.0833 169.672 75.85ZM185.972 89.15V90.15C184.939 90.35 183.906 90.7833 182.872 91.45C181.839 92.1167 180.789 92.9667 179.722 94L175.872 98L176.372 97.05L184.922 111.35C185.289 111.95 185.672 112.483 186.072 112.95C186.472 113.417 186.956 113.75 187.522 113.95V115C187.022 114.967 186.272 114.933 185.272 114.9C184.272 114.833 183.272 114.8 182.272 114.8C181.039 114.8 179.806 114.833 178.572 114.9C177.339 114.933 176.422 114.967 175.822 115V113.95C176.489 113.95 176.939 113.8 177.172 113.5C177.406 113.167 177.372 112.75 177.072 112.25L172.122 103.3C171.722 102.667 171.322 102.267 170.922 102.1C170.556 101.9 170.056 101.783 169.422 101.75V100.8C170.122 100.733 170.722 100.617 171.222 100.45C171.756 100.283 172.239 99.9667 172.672 99.5L176.472 95.8C177.606 94.7333 178.172 93.7833 178.172 92.95C178.172 92.1167 177.806 91.45 177.072 90.95C176.372 90.45 175.439 90.1833 174.272 90.15V89.15C175.206 89.1833 176.222 89.2167 177.322 89.25C178.422 89.2833 179.356 89.3 180.122 89.3C180.789 89.3 181.489 89.3 182.222 89.3C182.989 89.2667 183.706 89.25 184.372 89.25C185.039 89.2167 185.572 89.1833 185.972 89.15ZM94.2781 146.6V147.6C93.5448 147.867 92.7781 148.45 91.9781 149.35C91.1781 150.217 90.4781 151.617 89.8781 153.55L81.0781 182.1C80.8115 182.067 80.5281 182.05 80.2281 182.05C79.9281 182.05 79.6281 182.05 79.3281 182.05C79.0281 182.05 78.7281 182.05 78.4281 182.05C78.1281 182.05 77.8448 182.067 77.5781 182.1L67.0781 150.3C66.7448 149.267 66.3281 148.567 65.8281 148.2C65.3615 147.833 64.8615 147.633 64.3281 147.6V146.6C65.2615 146.633 66.3615 146.667 67.6281 146.7C68.9281 146.733 70.2115 146.75 71.4781 146.75C72.9448 146.75 74.3115 146.733 75.5781 146.7C76.8781 146.667 77.9115 146.633 78.6781 146.6V147.6C77.6781 147.633 76.8781 147.75 76.2781 147.95C75.7115 148.15 75.3781 148.533 75.2781 149.1C75.2115 149.667 75.3781 150.567 75.7781 151.8L82.8781 173.5L81.7281 175.55L87.3781 157.6C88.1781 155.067 88.5615 153.083 88.5281 151.65C88.4948 150.217 88.1115 149.2 87.3781 148.6C86.6448 147.967 85.5948 147.633 84.2281 147.6V146.6C85.3615 146.633 86.4281 146.667 87.4281 146.7C88.4281 146.733 89.4281 146.75 90.4281 146.75C91.1948 146.75 91.8948 146.733 92.5281 146.7C93.1948 146.667 93.7781 146.633 94.2781 146.6ZM58.5781 146.6V147.6C57.9115 147.7 57.4448 147.95 57.1781 148.35C56.9115 148.717 56.7948 149.217 56.8281 149.85C56.8948 150.45 57.0448 151.1 57.2781 151.8L64.9281 174L63.5781 175.8L69.9781 157.1L70.6781 158.45L62.8281 182.1C62.5615 182.067 62.2781 182.05 61.9781 182.05C61.6781 182.05 61.3781 182.05 61.0781 182.05C60.7781 182.05 60.4781 182.05 60.1781 182.05C59.8781 182.05 59.5948 182.067 59.3281 182.1L48.1281 150.8C47.6948 149.567 47.1781 148.733 46.5781 148.3C46.0115 147.867 45.4781 147.633 44.9781 147.6V146.6C45.9781 146.633 47.1615 146.667 48.5281 146.7C49.8948 146.733 51.1948 146.75 52.4281 146.75C53.7615 146.75 54.9448 146.733 55.9781 146.7C57.0448 146.667 57.9115 146.633 58.5781 146.6ZM104.551 155.45C106.985 155.45 109.118 155.9 110.951 156.8C112.785 157.7 114.218 159.15 115.251 161.15C116.285 163.15 116.801 165.8 116.801 169.1C116.801 172.4 116.285 175.05 115.251 177.05C114.218 179.017 112.785 180.45 110.951 181.35C109.118 182.25 106.985 182.7 104.551 182.7C102.185 182.7 100.068 182.25 98.2012 181.35C96.3678 180.45 94.9178 179.017 93.8512 177.05C92.8178 175.05 92.3012 172.4 92.3012 169.1C92.3012 165.8 92.8178 163.15 93.8512 161.15C94.9178 159.15 96.3678 157.7 98.2012 156.8C100.068 155.9 102.185 155.45 104.551 155.45ZM104.551 156.45C103.218 156.45 102.101 157.45 101.201 159.45C100.301 161.417 99.8512 164.633 99.8512 169.1C99.8512 173.567 100.301 176.783 101.201 178.75C102.101 180.717 103.218 181.7 104.551 181.7C105.918 181.7 107.035 180.717 107.901 178.75C108.801 176.783 109.251 173.567 109.251 169.1C109.251 164.633 108.801 161.417 107.901 159.45C107.035 157.45 105.918 156.45 104.551 156.45ZM137.123 155.45C138.189 155.45 139.056 155.683 139.723 156.15C140.389 156.583 140.873 157.15 141.173 157.85C141.506 158.55 141.673 159.283 141.673 160.05C141.673 161.283 141.306 162.3 140.573 163.1C139.873 163.867 138.939 164.25 137.773 164.25C136.606 164.25 135.689 163.967 135.023 163.4C134.389 162.8 134.073 162.017 134.073 161.05C134.073 160.117 134.273 159.35 134.673 158.75C135.106 158.117 135.639 157.583 136.273 157.15C135.806 157.017 135.339 157.033 134.873 157.2C134.239 157.3 133.639 157.567 133.073 158C132.506 158.4 132.023 158.917 131.623 159.55C131.223 160.15 130.906 160.817 130.673 161.55C130.439 162.25 130.323 162.933 130.323 163.6V176.85C130.323 178.45 130.706 179.533 131.473 180.1C132.273 180.667 133.456 180.95 135.023 180.95V182C134.256 181.967 133.139 181.933 131.673 181.9C130.206 181.833 128.673 181.8 127.073 181.8C125.739 181.8 124.389 181.833 123.023 181.9C121.656 181.933 120.623 181.967 119.923 182V180.95C121.089 180.95 121.906 180.7 122.373 180.2C122.873 179.7 123.123 178.75 123.123 177.35V161.6C123.123 160.1 122.889 159 122.423 158.3C121.989 157.567 121.156 157.2 119.923 157.2V156.15C120.989 156.25 122.023 156.3 123.023 156.3C124.423 156.3 125.723 156.25 126.923 156.15C128.156 156.017 129.289 155.833 130.323 155.6V160.25C130.723 159.35 131.256 158.533 131.923 157.8C132.589 157.067 133.356 156.5 134.223 156.1C135.089 155.667 136.056 155.45 137.123 155.45ZM161.413 155.45C162.813 155.45 163.946 155.633 164.813 156C165.679 156.333 166.379 156.8 166.913 157.4C167.446 158.033 167.829 158.867 168.063 159.9C168.296 160.9 168.413 162.233 168.413 163.9V177.35C168.413 178.75 168.629 179.7 169.063 180.2C169.496 180.7 170.246 180.95 171.313 180.95V182C170.713 181.967 169.796 181.933 168.563 181.9C167.363 181.833 166.179 181.8 165.013 181.8C163.813 181.8 162.629 181.833 161.463 181.9C160.296 181.933 159.413 181.967 158.813 182V180.95C159.713 180.95 160.329 180.7 160.663 180.2C161.029 179.7 161.213 178.75 161.213 177.35V161.8C161.213 160.967 161.146 160.25 161.013 159.65C160.879 159.017 160.613 158.533 160.213 158.2C159.846 157.833 159.279 157.65 158.513 157.65C157.646 157.65 156.846 157.9 156.113 158.4C155.379 158.9 154.779 159.6 154.313 160.5C153.879 161.367 153.663 162.35 153.663 163.45V177.35C153.663 178.75 153.846 179.7 154.213 180.2C154.579 180.7 155.196 180.95 156.063 180.95V182C155.529 181.967 154.696 181.933 153.563 181.9C152.463 181.833 151.329 181.8 150.163 181.8C148.896 181.8 147.596 181.833 146.263 181.9C144.929 181.933 143.929 181.967 143.263 182V180.95C144.429 180.95 145.246 180.7 145.713 180.2C146.213 179.7 146.463 178.75 146.463 177.35V161.6C146.463 160.1 146.229 159 145.763 158.3C145.329 157.567 144.496 157.2 143.263 157.2V156.15C144.329 156.25 145.363 156.3 146.363 156.3C147.763 156.3 149.063 156.25 150.263 156.15C151.496 156.017 152.629 155.833 153.663 155.6V160.1C154.463 158.433 155.546 157.25 156.913 156.55C158.279 155.817 159.779 155.45 161.413 155.45ZM176.463 155.45C177.863 155.45 178.996 155.633 179.863 156C180.729 156.333 181.429 156.8 181.963 157.4C182.496 158.033 182.879 158.867 183.113 159.9C183.346 160.9 183.463 162.233 183.463 163.9V177.35C183.463 178.75 183.696 179.7 184.163 180.2C184.663 180.7 185.496 180.95 186.663 180.95V182C186.029 181.967 185.079 181.933 183.813 181.9C182.546 181.833 181.296 181.8 180.063 181.8C178.863 181.8 177.679 181.833 176.513 181.9C175.346 181.933 174.463 181.967 173.863 182V180.95C174.763 180.95 175.379 180.7 175.713 180.2C176.079 179.7 176.263 178.75 176.263 177.35V161.8C176.263 160.967 176.179 160.25 176.013 159.65C175.879 159.017 175.596 158.533 175.163 158.2C174.763 157.833 174.129 157.65 173.263 157.65C172.396 157.65 171.596 157.917 170.863 158.45C170.129 158.983 169.529 159.7 169.063 160.6C168.629 161.5 168.396 162.5 168.363 163.6L168.113 160.55C169.013 158.55 170.196 157.2 171.663 156.5C173.163 155.8 174.763 155.45 176.463 155.45ZM198.426 155.45C199.826 155.45 201.043 155.633 202.076 156C203.143 156.333 203.91 156.667 204.376 157C205.51 157.767 206.21 157.267 206.476 155.5H207.526C207.46 156.433 207.41 157.583 207.376 158.95C207.343 160.283 207.326 162.067 207.326 164.3H206.276C206.11 163.067 205.793 161.85 205.326 160.65C204.86 159.45 204.176 158.467 203.276 157.7C202.41 156.933 201.276 156.55 199.876 156.55C198.91 156.55 198.093 156.833 197.426 157.4C196.76 157.933 196.426 158.717 196.426 159.75C196.426 160.75 196.726 161.633 197.326 162.4C197.926 163.133 198.693 163.85 199.626 164.55C200.593 165.217 201.593 165.933 202.626 166.7C203.726 167.533 204.726 168.367 205.626 169.2C206.526 170 207.243 170.883 207.776 171.85C208.31 172.817 208.576 173.967 208.576 175.3C208.576 176.8 208.143 178.117 207.276 179.25C206.41 180.35 205.26 181.2 203.826 181.8C202.426 182.4 200.86 182.7 199.126 182.7C198.126 182.7 197.226 182.6 196.426 182.4C195.66 182.2 194.993 181.95 194.426 181.65C193.993 181.45 193.576 181.267 193.176 181.1C192.81 180.9 192.46 180.733 192.126 180.6C191.793 180.5 191.493 180.617 191.226 180.95C190.993 181.283 190.81 181.75 190.676 182.35H189.626C189.693 181.283 189.743 179.983 189.776 178.45C189.81 176.917 189.826 174.883 189.826 172.35H190.876C191.076 174.15 191.443 175.75 191.976 177.15C192.51 178.517 193.226 179.6 194.126 180.4C195.06 181.167 196.226 181.55 197.626 181.55C198.193 181.55 198.743 181.433 199.276 181.2C199.81 180.967 200.243 180.583 200.576 180.05C200.943 179.517 201.126 178.833 201.126 178C201.126 176.533 200.643 175.317 199.676 174.35C198.743 173.383 197.543 172.333 196.076 171.2C195.01 170.333 193.993 169.483 193.026 168.65C192.093 167.783 191.326 166.85 190.726 165.85C190.126 164.817 189.826 163.65 189.826 162.35C189.826 160.85 190.226 159.583 191.026 158.55C191.826 157.517 192.876 156.75 194.176 156.25C195.51 155.717 196.926 155.45 198.426 155.45Z" fill="white"/>
<g filter="url(#filter0_d_401_10)">
<rect x="206" width="40" height="68" fill="#950909"/>
</g>
<path d="M219 92L206.01 68H231.99L219 92Z" fill="#950909"/>
<path d="M233 92L220.01 68H245.99L233 92Z" fill="#950909"/>
<defs>
<filter id="filter0_d_401_10" x="202" y="0" width="48" height="76" filterUnits="userSpaceOnUse" color-interpolation-filters="sRGB">
<feFlood flood-opacity="0" result="BackgroundImageFix"/>
<feColorMatrix in="SourceAlpha" type="matrix" values="0 0 0 0 0 0 0 0 0 0 0 0 0 0 0 0 0 0 127 0" result="hardAlpha"/>
<feOffset dy="4"/>
<feGaussianBlur stdDeviation="2"/>
<feComposite in2="hardAlpha" operator="out"/>
<feColorMatrix type="matrix" values="0 0 0 0 0 0 0 0 0 0 0 0 0 0 0 0 0 0 0.25 0"/>
<feBlend mode="normal" in2="BackgroundImageFix" result="effect1_dropShadow_401_10"/>
<feBlend mode="normal" in="SourceGraphic" in2="effect1_dropShadow_401_10" result="shape"/>
</filter>
</defs>
</svg>
