<svg width="64" height="64" viewBox="0 0 64 64" fill="none" xmlns="http://www.w3.org/2000/svg">
<rect width="64" height="64" fill="white"/>
<rect x="7" y="34" width="50" height="18" fill="black"/>
<path d="M15.9341 24.1621C16.2134 24.1621 16.4715 24.105 16.7085 23.9907C16.9455 23.8765 17.1401 23.7199 17.2925 23.521C17.4448 23.3179 17.5316 23.0872 17.5527 22.8291H18.6699C18.6488 23.2354 18.5112 23.6141 18.2573 23.9653C18.0076 24.3123 17.6797 24.5938 17.2734 24.8096C16.8672 25.0212 16.4207 25.127 15.9341 25.127C15.4178 25.127 14.9671 25.036 14.582 24.854C14.2012 24.672 13.8838 24.4224 13.6299 24.105C13.3802 23.7876 13.1919 23.4237 13.0649 23.0132C12.9422 22.5985 12.8809 22.1605 12.8809 21.6992V21.4326C12.8809 20.9714 12.9422 20.5355 13.0649 20.125C13.1919 19.7103 13.3802 19.3442 13.6299 19.0269C13.8838 18.7095 14.2012 18.4598 14.582 18.2778C14.9671 18.0959 15.4178 18.0049 15.9341 18.0049C16.4715 18.0049 16.9412 18.1149 17.3433 18.335C17.7453 18.5508 18.0605 18.847 18.2891 19.2236C18.5218 19.596 18.6488 20.0192 18.6699 20.4932H17.5527C17.5316 20.2096 17.4512 19.9536 17.3115 19.7251C17.1761 19.4966 16.9899 19.3146 16.7529 19.1792C16.5202 19.0396 16.2472 18.9697 15.9341 18.9697C15.5744 18.9697 15.2718 19.0417 15.0264 19.1855C14.7852 19.3252 14.5926 19.5156 14.4487 19.7568C14.3091 19.9938 14.2075 20.2583 14.144 20.5503C14.0848 20.8381 14.0552 21.1322 14.0552 21.4326V21.6992C14.0552 21.9997 14.0848 22.2959 14.144 22.5879C14.2033 22.8799 14.3027 23.1444 14.4424 23.3813C14.5863 23.6183 14.7788 23.8088 15.02 23.9526C15.2655 24.0923 15.5701 24.1621 15.9341 24.1621ZM22.8403 25.127C22.3621 25.127 21.9284 25.0465 21.5391 24.8857C21.154 24.7207 20.8218 24.4901 20.5425 24.1938C20.2674 23.8976 20.0558 23.5464 19.9077 23.1401C19.7596 22.7339 19.6855 22.2896 19.6855 21.8071V21.5405C19.6855 20.9819 19.7681 20.4847 19.9331 20.0488C20.0981 19.6087 20.3224 19.2363 20.606 18.9316C20.8895 18.627 21.2111 18.3963 21.5708 18.2397C21.9305 18.0832 22.3029 18.0049 22.688 18.0049C23.1789 18.0049 23.6021 18.0895 23.9575 18.2588C24.3172 18.4281 24.6113 18.665 24.8398 18.9697C25.0684 19.2702 25.2376 19.6257 25.3477 20.0361C25.4577 20.4424 25.5127 20.8867 25.5127 21.3691V21.896H20.3838V20.9375H24.3384V20.8486C24.3215 20.5439 24.258 20.2477 24.1479 19.96C24.0422 19.6722 23.8729 19.4352 23.6401 19.249C23.4074 19.0628 23.09 18.9697 22.688 18.9697C22.4214 18.9697 22.1759 19.0269 21.9517 19.1411C21.7274 19.2511 21.5348 19.4162 21.374 19.6362C21.2132 19.8563 21.0884 20.125 20.9995 20.4424C20.9106 20.7598 20.8662 21.1258 20.8662 21.5405V21.8071C20.8662 22.133 20.9106 22.4398 20.9995 22.7275C21.0926 23.0111 21.2259 23.2607 21.3994 23.4766C21.5771 23.6924 21.7909 23.8617 22.0405 23.9844C22.2944 24.1071 22.5822 24.1685 22.9038 24.1685C23.3185 24.1685 23.6698 24.0838 23.9575 23.9146C24.2453 23.7453 24.4971 23.5189 24.7129 23.2354L25.4238 23.8003C25.2757 24.0246 25.0874 24.2383 24.8589 24.4414C24.6304 24.6445 24.349 24.8096 24.0146 24.9365C23.6846 25.0635 23.2931 25.127 22.8403 25.127ZM28.0581 19.5981V25H26.8838V18.1318H27.9946L28.0581 19.5981ZM27.7788 21.3057L27.29 21.2866C27.2943 20.8169 27.3641 20.3831 27.4995 19.9854C27.6349 19.5833 27.8254 19.2342 28.0708 18.938C28.3162 18.6418 28.6082 18.4132 28.9468 18.2524C29.2896 18.0874 29.6683 18.0049 30.083 18.0049C30.4215 18.0049 30.7262 18.0514 30.9971 18.1445C31.2679 18.2334 31.4985 18.3773 31.689 18.5762C31.8836 18.7751 32.0317 19.0332 32.1333 19.3506C32.2349 19.6637 32.2856 20.0467 32.2856 20.4995V25H31.105V20.4868C31.105 20.1271 31.0521 19.8394 30.9463 19.6235C30.8405 19.4035 30.686 19.2448 30.4829 19.1475C30.2798 19.0459 30.0301 18.9951 29.7339 18.9951C29.4419 18.9951 29.1753 19.0565 28.9341 19.1792C28.6971 19.3019 28.4919 19.4712 28.3184 19.687C28.1491 19.9028 28.0158 20.1504 27.9185 20.4297C27.8254 20.7048 27.7788 20.9967 27.7788 21.3057ZM38.0684 23.1782C38.0684 23.009 38.0303 22.8524 37.9541 22.7085C37.8822 22.5604 37.7319 22.4271 37.5034 22.3086C37.2791 22.1859 36.9406 22.0801 36.4878 21.9912C36.1069 21.9108 35.762 21.8156 35.4531 21.7056C35.1484 21.5955 34.8882 21.4622 34.6724 21.3057C34.4608 21.1491 34.2979 20.965 34.1836 20.7534C34.0693 20.5418 34.0122 20.2943 34.0122 20.0107C34.0122 19.7399 34.0715 19.4839 34.1899 19.2427C34.3127 19.0015 34.484 18.7878 34.7041 18.6016C34.9284 18.4154 35.1971 18.2694 35.5103 18.1636C35.8234 18.0578 36.1725 18.0049 36.5576 18.0049C37.1077 18.0049 37.5775 18.1022 37.9668 18.2969C38.3561 18.4915 38.6545 18.7518 38.8618 19.0776C39.0692 19.3993 39.1729 19.7568 39.1729 20.1504H37.9985C37.9985 19.96 37.9414 19.7759 37.8271 19.5981C37.7171 19.4162 37.5542 19.266 37.3384 19.1475C37.1268 19.029 36.8665 18.9697 36.5576 18.9697C36.2318 18.9697 35.9673 19.0205 35.7642 19.1221C35.5653 19.2194 35.4193 19.3442 35.3262 19.4966C35.2373 19.6489 35.1929 19.8097 35.1929 19.979C35.1929 20.106 35.214 20.2202 35.2563 20.3218C35.3029 20.4191 35.3833 20.5101 35.4976 20.5947C35.6118 20.6751 35.7726 20.7513 35.98 20.8232C36.1873 20.8952 36.4518 20.9671 36.7734 21.0391C37.3363 21.166 37.7996 21.3184 38.1636 21.4961C38.5275 21.6738 38.7983 21.8918 38.9761 22.1499C39.1538 22.408 39.2427 22.7212 39.2427 23.0894C39.2427 23.3898 39.1792 23.6649 39.0522 23.9146C38.9295 24.1642 38.7497 24.38 38.5127 24.562C38.2799 24.7397 38.0007 24.8794 37.6748 24.981C37.3532 25.0783 36.9914 25.127 36.5894 25.127C35.9842 25.127 35.4722 25.019 35.0532 24.8032C34.6343 24.5874 34.3169 24.3081 34.1011 23.9653C33.8853 23.6226 33.7773 23.2607 33.7773 22.8799H34.958C34.9749 23.2015 35.068 23.4575 35.2373 23.6479C35.4066 23.8341 35.6139 23.9674 35.8594 24.0479C36.1048 24.124 36.3481 24.1621 36.5894 24.1621C36.911 24.1621 37.1797 24.1198 37.3955 24.0352C37.6156 23.9505 37.7827 23.8341 37.897 23.686C38.0112 23.5379 38.0684 23.3687 38.0684 23.1782ZM40.4741 21.6421V21.4961C40.4741 21.001 40.5461 20.5418 40.6899 20.1187C40.8338 19.6912 41.0412 19.321 41.312 19.0078C41.5828 18.6904 41.9108 18.445 42.2959 18.2715C42.681 18.0938 43.1126 18.0049 43.5908 18.0049C44.0732 18.0049 44.507 18.0938 44.8921 18.2715C45.2814 18.445 45.6115 18.6904 45.8823 19.0078C46.1574 19.321 46.3669 19.6912 46.5107 20.1187C46.6546 20.5418 46.7266 21.001 46.7266 21.4961V21.6421C46.7266 22.1372 46.6546 22.5964 46.5107 23.0195C46.3669 23.4427 46.1574 23.813 45.8823 24.1304C45.6115 24.4435 45.2835 24.689 44.8984 24.8667C44.5176 25.0402 44.0859 25.127 43.6035 25.127C43.1211 25.127 42.6873 25.0402 42.3022 24.8667C41.9172 24.689 41.5871 24.4435 41.312 24.1304C41.0412 23.813 40.8338 23.4427 40.6899 23.0195C40.5461 22.5964 40.4741 22.1372 40.4741 21.6421ZM41.6484 21.4961V21.6421C41.6484 21.9849 41.6886 22.3086 41.769 22.6133C41.8494 22.9137 41.9701 23.1803 42.1309 23.4131C42.2959 23.6458 42.5011 23.8299 42.7466 23.9653C42.992 24.0965 43.2777 24.1621 43.6035 24.1621C43.9251 24.1621 44.2065 24.0965 44.4478 23.9653C44.6932 23.8299 44.8963 23.6458 45.0571 23.4131C45.2179 23.1803 45.3385 22.9137 45.4189 22.6133C45.5036 22.3086 45.5459 21.9849 45.5459 21.6421V21.4961C45.5459 21.1576 45.5036 20.8381 45.4189 20.5376C45.3385 20.2329 45.2158 19.9642 45.0508 19.7314C44.89 19.4945 44.6868 19.3083 44.4414 19.1729C44.2002 19.0374 43.9167 18.9697 43.5908 18.9697C43.2692 18.9697 42.9857 19.0374 42.7402 19.1729C42.499 19.3083 42.2959 19.4945 42.1309 19.7314C41.9701 19.9642 41.8494 20.2329 41.769 20.5376C41.6886 20.8381 41.6484 21.1576 41.6484 21.4961ZM49.3735 19.2109V25H48.1992V18.1318H49.3418L49.3735 19.2109ZM51.519 18.0938L51.5127 19.1855C51.4154 19.1644 51.3223 19.1517 51.2334 19.1475C51.1488 19.139 51.0514 19.1348 50.9414 19.1348C50.6706 19.1348 50.4315 19.1771 50.2241 19.2617C50.0168 19.3464 49.8411 19.4648 49.6973 19.6172C49.5534 19.7695 49.4391 19.9515 49.3545 20.1631C49.2741 20.3704 49.2212 20.599 49.1958 20.8486L48.8657 21.0391C48.8657 20.6243 48.9059 20.235 48.9863 19.8711C49.071 19.5072 49.2 19.1855 49.3735 18.9062C49.547 18.6227 49.7671 18.4027 50.0337 18.2461C50.3045 18.0853 50.6261 18.0049 50.9985 18.0049C51.0832 18.0049 51.1805 18.0155 51.2905 18.0366C51.4006 18.0535 51.4767 18.0726 51.519 18.0938Z" fill="black"/>
<path d="M25.1255 41.1318V42.0332H21.4121V41.1318H25.1255ZM22.6689 39.4624H23.8433V46.2988C23.8433 46.5316 23.8792 46.7072 23.9512 46.8257C24.0231 46.9442 24.1162 47.0225 24.2305 47.0605C24.3447 47.0986 24.4674 47.1177 24.5986 47.1177C24.696 47.1177 24.7975 47.1092 24.9033 47.0923C25.0133 47.0711 25.0959 47.0542 25.1509 47.0415L25.1572 48C25.0641 48.0296 24.9414 48.0571 24.7891 48.0825C24.641 48.1121 24.4611 48.127 24.2495 48.127C23.9618 48.127 23.6973 48.0698 23.4561 47.9556C23.2148 47.8413 23.0223 47.6509 22.8784 47.3843C22.7388 47.1134 22.6689 46.7495 22.6689 46.2925V39.4624ZM27.6772 38.25V48H26.5029V38.25H27.6772ZM27.3979 44.3057L26.9092 44.2866C26.9134 43.8169 26.9832 43.3831 27.1187 42.9854C27.2541 42.5833 27.4445 42.2342 27.6899 41.938C27.9354 41.6418 28.2274 41.4132 28.5659 41.2524C28.9087 41.0874 29.2874 41.0049 29.7021 41.0049C30.0407 41.0049 30.3454 41.0514 30.6162 41.1445C30.887 41.2334 31.1177 41.3773 31.3081 41.5762C31.5028 41.7751 31.6509 42.0332 31.7524 42.3506C31.854 42.6637 31.9048 43.0467 31.9048 43.4995V48H30.7241V43.4868C30.7241 43.1271 30.6712 42.8394 30.5654 42.6235C30.4596 42.4035 30.3052 42.2448 30.1021 42.1475C29.8989 42.0459 29.6493 41.9951 29.353 41.9951C29.061 41.9951 28.7944 42.0565 28.5532 42.1792C28.3162 42.3019 28.111 42.4712 27.9375 42.687C27.7682 42.9028 27.6349 43.1504 27.5376 43.4297C27.4445 43.7048 27.3979 43.9967 27.3979 44.3057ZM34.939 41.1318V48H33.7583V41.1318H34.939ZM33.6694 39.3101C33.6694 39.1196 33.7266 38.9588 33.8408 38.8276C33.9593 38.6965 34.1328 38.6309 34.3613 38.6309C34.5856 38.6309 34.757 38.6965 34.8755 38.8276C34.9982 38.9588 35.0596 39.1196 35.0596 39.3101C35.0596 39.492 34.9982 39.6486 34.8755 39.7798C34.757 39.9067 34.5856 39.9702 34.3613 39.9702C34.1328 39.9702 33.9593 39.9067 33.8408 39.7798C33.7266 39.6486 33.6694 39.492 33.6694 39.3101ZM40.8232 46.1782C40.8232 46.009 40.7852 45.8524 40.709 45.7085C40.637 45.5604 40.4868 45.4271 40.2583 45.3086C40.034 45.1859 39.6955 45.0801 39.2427 44.9912C38.8618 44.9108 38.5169 44.8156 38.208 44.7056C37.9033 44.5955 37.6431 44.4622 37.4272 44.3057C37.2157 44.1491 37.0527 43.965 36.9385 43.7534C36.8242 43.5418 36.7671 43.2943 36.7671 43.0107C36.7671 42.7399 36.8263 42.4839 36.9448 42.2427C37.0675 42.0015 37.2389 41.7878 37.459 41.6016C37.6833 41.4154 37.952 41.2694 38.2651 41.1636C38.5783 41.0578 38.9274 41.0049 39.3125 41.0049C39.8626 41.0049 40.3324 41.1022 40.7217 41.2969C41.111 41.4915 41.4093 41.7518 41.6167 42.0776C41.8241 42.3993 41.9277 42.7568 41.9277 43.1504H40.7534C40.7534 42.96 40.6963 42.7759 40.582 42.5981C40.472 42.4162 40.3091 42.266 40.0933 42.1475C39.8817 42.029 39.6214 41.9697 39.3125 41.9697C38.9867 41.9697 38.7222 42.0205 38.519 42.1221C38.3201 42.2194 38.1742 42.3442 38.0811 42.4966C37.9922 42.6489 37.9478 42.8097 37.9478 42.979C37.9478 43.106 37.9689 43.2202 38.0112 43.3218C38.0578 43.4191 38.1382 43.5101 38.2524 43.5947C38.3667 43.6751 38.5275 43.7513 38.7349 43.8232C38.9422 43.8952 39.2067 43.9671 39.5283 44.0391C40.0911 44.166 40.5545 44.3184 40.9185 44.4961C41.2824 44.6738 41.5532 44.8918 41.731 45.1499C41.9087 45.408 41.9976 45.7212 41.9976 46.0894C41.9976 46.3898 41.9341 46.6649 41.8071 46.9146C41.6844 47.1642 41.5046 47.38 41.2676 47.562C41.0348 47.7397 40.7555 47.8794 40.4297 47.981C40.1081 48.0783 39.7463 48.127 39.3442 48.127C38.7391 48.127 38.2271 48.019 37.8081 47.8032C37.3892 47.5874 37.0718 47.3081 36.856 46.9653C36.6401 46.6226 36.5322 46.2607 36.5322 45.8799H37.7129C37.7298 46.2015 37.8229 46.4575 37.9922 46.6479C38.1615 46.8341 38.3688 46.9674 38.6143 47.0479C38.8597 47.124 39.103 47.1621 39.3442 47.1621C39.6659 47.1621 39.9346 47.1198 40.1504 47.0352C40.3704 46.9505 40.5376 46.8341 40.6519 46.686C40.7661 46.5379 40.8232 46.3687 40.8232 46.1782Z" fill="white"/>
</svg>
