<svg baseProfile="tiny" version="1.2" xmlns="http://www.w3.org/2000/svg"><path fill="#fff" d="M0 0h375v375H0z"/><path stroke="#000" stroke-width=".5" d="M5 0v5M15 0v5M15 5h5M25 0v5M25 5h5M35 0v5M40 0v5M45 0v5M50 0v5M50 5h5M55 5h5M65 0v5M70 0v5M75 0v5M80 0v5M80 5h5M90 0v5M90 5h5M95 5h5M105 5h5M115 0v5M110 5h5M120 0v5M125 0v5M130 0v5M135 5h5M140 5h5M150 0v5M145 5h5M155 5h5M175 5h5M185 5h5M195 0v5M190 5h5M195 5h5M205 0v5M215 0v5M210 5h5M225 0v5M220 5h5M230 0v5M235 5h5M240 5h5M250 0v5M245 5h5M255 0v5M265 0v5M260 5h5M265 5h5M275 5h5M285 0v5M280 5h5M290 5h5M295 5h5M305 0v5M300 5h5M310 0v5M315 0v5M315 5h5M330 0v5M325 5h5M330 5h5M345 0v5M340 5h5M350 0v5M350 5h5M360 0v5M365 0v5M375 0v5M0 10h5M10 5v5M5 10h5M15 5v5M15 10h5M20 10h5M30 10h5M45 10h5M55 10h5M70 5v5M65 10h5M75 5v5M75 10h5M85 5v5M95 5v5M90 10h5M100 5v5M105 10h5M120 10h5M125 10h5M135 5v5M130 10h5M140 5v5M145 10h5M155 5v5M150 10h5M160 5v5M165 5v5M160 10h5M170 5v5M165 10h5M175 5v5M180 5v5M185 5v5M180 10h5M190 5v5M195 5v5M195 10h5M210 5v5M205 10h5M210 10h5M225 5v5M220 10h5M225 10h5M240 5v5M235 10h5M240 10h5M255 5v5M250 10h5M265 5v5M260 10h5M265 10h5M275 10h5M280 10h5M290 5v5M285 10h5M290 10h5M300 5v5M310 5v5M305 10h5M315 10h5M325 5v5M330 10h5M335 10h5M340 10h5M350 10h5M360 5v5M370 5v5M365 10h5M375 5v5M370 10h5M5 10v5M10 10v5M10 15h5M15 15h5M30 10v5M25 15h5M40 10v5M50 10v5M45 15h5M55 10v5M65 10v5M70 10v5M75 10v5M75 15h5M80 15h5M110 10v5M105 15h5M115 10v5M110 15h5M115 15h5M120 15h5M140 15h5M145 15h5M150 15h5M160 10v5M155 15h5M160 15h5M170 10v5M180 15h5M195 10v5M190 15h5M200 15h5M210 10v5M205 15h5M210 15h5M220 15h5M230 10v5M225 15h5M240 10v5M235 15h5M245 10v5M250 10v5M255 15h5M265 10v5M260 15h5M265 15h5M275 15h5M285 10v5M280 15h5M290 10v5M295 15h5M305 10v5M300 15h5M310 15h5M320 10v5M315 15h5M320 15h5M325 15h5M335 10v5M330 15h5M345 10v5M340 15h5M350 10v5M345 15h5M350 15h5M355 15h5M365 10v5M365 15h5M375 10v5M0 20h5M10 15v5M25 15v5M20 20h5M30 15v5M35 15v5M40 15v5M45 15v5M40 20h5M50 15v5M55 15v5M50 20h5M60 15v5M70 15v5M65 20h5M70 20h5M80 15v5M85 15v5M90 15v5M85 20h5M95 15v5M100 15v5M100 20h5M105 20h5M110 20h5M115 20h5M125 15v5M120 20h5M130 15v5M125 20h5M135 15v5M130 20h5M140 20h5M145 20h5M155 15v5M150 20h5M155 20h5M165 15v5M170 15v5M175 15v5M170 20h5M180 15v5M175 20h5M185 15v5M185 20h5M195 15v5M190 20h5M200 15v5M200 20h5M205 20h5M220 15v5M215 20h5M225 15v5M240 15v5M235 20h5M245 15v5M255 20h5M265 20h5M275 15v5M280 15v5M285 20h5M300 15v5M305 15v5M310 20h5M320 20h5M330 15v5M325 20h5M335 20h5M345 15v5M340 20h5M350 15v5M350 20h5M355 20h5M360 20h5M375 15v5M15 20v5M10 25h5M20 20v5M25 20v5M25 25h5M35 20v5M40 20v5M35 25h5M45 20v5M55 20v5M50 25h5M60 20v5M55 25h5M65 20v5M65 25h5M70 25h5M80 25h5M90 20v5M85 25h5M95 20v5M100 20v5M95 25h5M105 20v5M110 20v5M115 20v5M120 20v5M125 20v5M130 20v5M135 20v5M140 20v5M135 25h5M150 20v5M145 25h5M155 20v5M160 20v5M165 20v5M170 25h5M180 20v5M175 25h5M185 25h5M195 20v5M190 25h5M215 25h5M220 25h5M230 20v5M230 25h5M235 25h5M250 20v5M245 25h5M260 20v5M255 25h5M265 20v5M260 25h5M265 25h5M270 25h5M280 20v5M275 25h5M290 20v5M285 25h5M295 20v5M290 25h5M300 20v5M295 25h5M310 20v5M305 25h5M315 20v5M325 20v5M320 25h5M330 20v5M335 25h5M345 25h5M360 20v5M365 20v5M370 20v5M375 20v5M370 25h5M5 25v5M5 30h5M15 25v5M10 30h5M25 25v5M20 30h5M25 30h5M35 25v5M35 30h5M40 30h5M50 25v5M55 25v5M60 25v5M60 30h5M65 30h5M90 25v5M85 30h5M95 30h5M100 30h5M105 30h5M110 30h5M115 30h5M125 30h5M135 25v5M145 25v5M140 30h5M150 30h5M155 30h5M160 30h5M175 30h5M190 25v5M185 30h5M195 25v5M200 25v5M205 25v5M200 30h5M210 25v5M205 30h5M210 30h5M220 25v5M215 30h5M220 30h5M225 30h5M240 25v5M235 30h5M250 25v5M250 30h5M265 25v5M260 30h5M270 25v5M280 30h5M295 30h5M315 25v5M335 25v5M330 30h5M340 25v5M345 25v5M340 30h5M345 30h5M355 25v5M360 25v5M355 30h5M360 30h5M365 30h5M375 25v5M5 30v5M0 35h5M5 35h5M10 35h5M20 30v5M25 30v5M25 35h5M35 30v5M30 35h5M35 35h5M40 35h5M55 30v5M50 35h5M60 35h5M65 35h5M75 30v5M80 30v5M85 30v5M80 35h5M85 35h5M95 30v5M100 30v5M105 35h5M120 30v5M115 35h5M125 30v5M130 30v5M140 30v5M145 30v5M150 35h5M160 30v5M155 35h5M165 30v5M170 30v5M175 30v5M170 35h5M175 35h5M180 35h5M185 35h5M195 35h5M200 35h5M210 30v5M205 35h5M215 30v5M220 35h5M230 30v5M225 35h5M235 30v5M230 35h5M240 30v5M245 30v5M240 35h5M250 30v5M245 35h5M250 35h5M260 30v5M265 30v5M275 30v5M270 35h5M280 30v5M275 35h5M280 35h5M290 30v5M285 35h5M290 35h5M300 30v5M305 30v5M310 30v5M305 35h5M315 30v5M320 30v5M325 30v5M335 30v5M330 35h5M340 35h5M350 30v5M345 35h5M355 30v5M350 35h5M360 30v5M370 30v5M365 35h5M375 30v5M370 35h5M5 40h5M15 35v5M10 40h5M20 35v5M15 40h5M20 40h5M30 35v5M30 40h5M40 35v5M45 35v5M60 35v5M65 35v5M70 35v5M75 35v5M70 40h5M80 40h5M85 40h5M100 40h5M110 35v5M105 40h5M115 35v5M110 40h5M115 40h5M130 35v5M125 40h5M135 35v5M140 40h5M155 35v5M150 40h5M155 40h5M160 40h5M170 35v5M180 35v5M175 40h5M180 40h5M185 40h5M190 40h5M195 40h5M200 40h5M210 40h5M215 40h5M220 40h5M235 35v5M240 40h5M245 40h5M255 35v5M250 40h5M260 40h5M270 40h5M275 40h5M285 35v5M285 40h5M290 40h5M300 35v5M300 40h5M310 35v5M305 40h5M315 35v5M310 40h5M320 35v5M315 40h5M325 35v5M325 40h5M330 40h5M340 40h5M345 40h5M350 40h5M360 35v5M355 40h5M365 35v5M370 35v5M375 35v5M5 40v5M10 40v5M15 40v5M15 45h5M20 45h5M30 40v5M35 40v5M35 45h5M40 45h5M50 40v5M55 40v5M50 45h5M65 40v5M60 45h5M65 45h5M85 40v5M80 45h5M85 45h5M95 40v5M95 45h5M105 40v5M100 45h5M110 45h5M120 40v5M115 45h5M125 40v5M120 45h5M130 40v5M135 40v5M130 45h5M145 40v5M140 45h5M150 40v5M145 45h5M155 40v5M160 40v5M165 40v5M170 40v5M165 45h5M180 40v5M185 40v5M190 40v5M195 45h5M205 40v5M200 45h5M205 45h5M215 40v5M210 45h5M215 45h5M225 40v5M230 40v5M225 45h5M230 45h5M240 40v5M235 45h5M250 40v5M245 45h5M250 45h5M260 40v5M255 45h5M260 45h5M275 40v5M270 45h5M290 40v5M285 45h5M305 45h5M315 40v5M315 45h5M325 45h5M335 40v5M330 45h5M335 45h5M350 40v5M360 45h5M375 40v5M5 45v5M10 45v5M15 45v5M20 45v5M25 45v5M30 45v5M30 50h5M45 45v5M40 50h5M50 45v5M45 50h5M55 50h5M60 50h5M70 45v5M65 50h5M75 45v5M75 50h5M85 45v5M80 50h5M85 50h5M100 50h5M110 45v5M105 50h5M115 45v5M120 50h5M125 50h5M135 45v5M135 50h5M160 45v5M165 45v5M165 50h5M175 45v5M175 50h5M205 50h5M210 50h5M220 50h5M230 50h5M240 45v5M235 50h5M250 45v5M245 50h5M250 50h5M260 45v5M265 45v5M265 50h5M275 45v5M270 50h5M280 45v5M290 45v5M285 50h5M295 45v5M290 50h5M300 45v5M300 50h5M310 45v5M305 50h5M315 45v5M310 50h5M325 50h5M340 45v5M335 50h5M345 45v5M345 50h5M355 45v5M360 45v5M355 50h5M365 45v5M370 45v5M365 50h5M375 45v5M0 55h5M10 55h5M20 55h5M35 55h5M40 55h5M50 55h5M60 50v5M55 55h5M65 55h5M85 50v5M90 50v5M95 50v5M95 55h5M100 55h5M115 55h5M125 50v5M120 55h5M125 55h5M130 55h5M140 50v5M135 55h5M145 50v5M150 50v5M155 50v5M150 55h5M180 50v5M175 55h5M185 50v5M180 55h5M190 50v5M185 55h5M195 50v5M190 55h5M200 50v5M205 50v5M200 55h5M210 50v5M215 50v5M220 50v5M215 55h5M225 50v5M225 55h5M230 55h5M240 50v5M245 50v5M250 50v5M250 55h5M265 55h5M275 50v5M280 50v5M275 55h5M290 50v5M285 55h5M290 55h5M295 55h5M310 50v5M305 55h5M315 50v5M320 50v5M315 55h5M330 50v5M325 55h5M335 50v5M340 50v5M345 50v5M355 50v5M360 55h5M370 50v5M365 55h5M375 50v5M370 55h5M0 60h5M10 55v5M5 60h5M15 55v5M20 55v5M25 55v5M30 55v5M25 60h5M35 55v5M35 60h5M40 60h5M50 60h5M60 55v5M55 60h5M65 55v5M60 60h5M75 55v5M80 55v5M90 55v5M85 60h5M90 60h5M95 60h5M105 55v5M100 60h5M110 55v5M110 60h5M115 60h5M120 60h5M130 55v5M125 60h5M130 60h5M140 55v5M145 55v5M150 55v5M150 60h5M160 55v5M165 55v5M170 55v5M165 60h5M180 55v5M175 60h5M185 55v5M190 55v5M190 60h5M205 55v5M200 60h5M210 60h5M215 60h5M220 60h5M230 55v5M225 60h5M235 55v5M240 55v5M235 60h5M245 55v5M250 60h5M260 55v5M265 55v5M265 60h5M270 60h5M280 55v5M275 60h5M285 55v5M280 60h5M295 55v5M300 55v5M305 55v5M300 60h5M310 60h5M320 55v5M315 60h5M325 55v5M340 55v5M335 60h5M345 55v5M340 60h5M350 55v5M345 60h5M355 60h5M365 55v5M360 60h5M370 55v5M375 55v5M5 65h5M20 60v5M25 60v5M25 65h5M35 60v5M50 60v5M50 65h5M55 65h5M70 60v5M65 65h5M75 60v5M80 60v5M75 65h5M90 60v5M85 65h5M90 65h5M100 60v5M100 65h5M120 65h5M125 65h5M140 60v5M135 65h5M145 60v5M140 65h5M150 60v5M160 60v5M160 65h5M170 60v5M170 65h5M190 60v5M185 65h5M195 60v5M200 60v5M195 65h5M205 65h5M215 60v5M225 60v5M220 65h5M230 60v5M240 65h5M250 60v5M245 65h5M255 60v5M260 60v5M255 65h5M265 60v5M260 65h5M270 60v5M270 65h5M285 60v5M280 65h5M290 60v5M285 65h5M305 65h5M315 60v5M310 65h5M315 65h5M325 60v5M320 65h5M330 60v5M325 65h5M335 65h5M345 60v5M340 65h5M345 65h5M355 65h5M365 65h5M375 60v5M370 65h5M5 65v5M0 70h5M10 65v5M15 65v5M20 65v5M20 70h5M25 70h5M35 65v5M40 65v5M35 70h5M45 65v5M55 65v5M50 70h5M55 70h5M70 65v5M65 70h5M70 70h5M80 65v5M75 70h5M90 65v5M90 70h5M110 65v5M115 65v5M110 70h5M130 65v5M125 70h5M135 65v5M140 65v5M145 65v5M150 65v5M145 70h5M155 65v5M150 70h5M165 65v5M160 70h5M170 65v5M180 65v5M190 65v5M195 65v5M200 65v5M205 65v5M210 65v5M215 65v5M210 70h5M220 70h5M225 70h5M235 65v5M230 70h5M240 65v5M235 70h5M245 65v5M255 65v5M250 70h5M255 70h5M265 65v5M275 65v5M270 70h5M275 70h5M285 65v5M290 65v5M295 65v5M300 65v5M295 70h5M300 70h5M310 65v5M305 70h5M315 65v5M320 70h5M330 65v5M325 70h5M340 70h5M350 65v5M345 70h5M355 65v5M350 70h5M355 70h5M375 65v5M370 70h5M0 75h5M15 70v5M10 75h5M20 70v5M15 75h5M25 70v5M25 75h5M35 70v5M30 75h5M45 70v5M45 75h5M55 70v5M50 75h5M55 75h5M65 70v5M70 70v5M75 75h5M85 70v5M90 70v5M85 75h5M95 70v5M100 70v5M95 75h5M105 70v5M100 75h5M115 70v5M110 75h5M120 70v5M120 75h5M130 70v5M125 75h5M135 70v5M130 75h5M135 75h5M145 75h5M155 70v5M150 75h5M160 70v5M165 70v5M170 70v5M175 70v5M170 75h5M180 70v5M175 75h5M185 70v5M180 75h5M185 75h5M195 75h5M205 75h5M210 75h5M220 70v5M220 75h5M230 75h5M240 70v5M235 75h5M240 75h5M250 70v5M260 70v5M255 75h5M270 70v5M265 75h5M275 70v5M275 75h5M285 70v5M290 75h5M300 70v5M295 75h5M305 75h5M315 75h5M325 70v5M320 75h5M325 75h5M335 70v5M330 75h5M340 70v5M345 70v5M345 75h5M360 70v5M355 75h5M365 70v5M365 75h5M375 70v5M370 75h5M0 80h5M10 75v5M5 80h5M15 75v5M20 75v5M25 75v5M25 80h5M30 80h5M40 75v5M40 80h5M50 75v5M45 80h5M50 80h5M65 75v5M70 75v5M75 75v5M85 80h5M100 75v5M95 80h5M115 75v5M115 80h5M135 75v5M130 80h5M135 80h5M150 75v5M145 80h5M155 75v5M160 75v5M155 80h5M160 80h5M170 80h5M175 80h5M190 75v5M185 80h5M195 75v5M195 80h5M205 75v5M200 80h5M210 75v5M215 75v5M220 75v5M215 80h5M225 80h5M235 80h5M245 75v5M240 80h5M250 80h5M260 75v5M255 80h5M270 75v5M265 80h5M280 75v5M275 80h5M290 75v5M295 75v5M300 80h5M310 75v5M305 80h5M310 80h5M315 80h5M320 80h5M330 75v5M325 80h5M335 75v5M340 75v5M350 75v5M345 80h5M355 75v5M360 75v5M365 75v5M360 80h5M370 75v5M375 75v5M5 80v5M10 80v5M10 85h5M30 85h5M45 80v5M40 85h5M60 80v5M70 80v5M75 80v5M70 85h5M80 80v5M75 85h5M90 80v5M90 85h5M100 80v5M95 85h5M105 80v5M100 85h5M110 80v5M120 80v5M115 85h5M125 80v5M120 85h5M130 80v5M135 80v5M140 80v5M145 80v5M145 85h5M155 80v5M160 80v5M165 80v5M170 80v5M165 85h5M170 85h5M175 85h5M190 80v5M185 85h5M190 85h5M205 80v5M200 85h5M210 80v5M210 85h5M215 85h5M230 80v5M225 85h5M235 80v5M230 85h5M240 85h5M245 85h5M255 80v5M250 85h5M260 80v5M260 85h5M265 85h5M275 80v5M275 85h5M285 80v5M285 85h5M295 85h5M305 80v5M300 85h5M310 80v5M315 80v5M320 80v5M325 80v5M335 80v5M330 85h5M350 85h5M355 85h5M360 85h5M365 85h5M375 80v5M0 90h5M10 90h5M20 85v5M15 90h5M25 85v5M30 85v5M25 90h5M30 90h5M40 85v5M40 90h5M50 85v5M45 90h5M55 85v5M60 85v5M55 90h5M65 85v5M65 90h5M75 85v5M70 90h5M85 85v5M80 90h5M95 85v5M90 90h5M105 85v5M100 90h5M110 85v5M105 90h5M115 85v5M110 90h5M115 90h5M150 90h5M155 90h5M170 85v5M175 85v5M180 85v5M180 90h5M190 85v5M185 90h5M190 90h5M205 90h5M210 90h5M215 90h5M225 90h5M245 85v5M240 90h5M250 85v5M255 85v5M260 85v5M260 90h5M270 85v5M275 90h5M290 85v5M285 90h5M290 90h5M300 85v5M305 90h5M310 90h5M315 90h5M325 85v5M320 90h5M335 85v5M330 90h5M340 85v5M345 85v5M340 90h5M355 85v5M350 90h5M360 85v5M365 85v5M375 85v5M5 90v5M15 90v5M20 90v5M30 90v5M25 95h5M30 95h5M45 90v5M40 95h5M55 90v5M65 90v5M60 95h5M65 95h5M70 95h5M85 90v5M80 95h5M100 95h5M115 90v5M125 90v5M120 95h5M130 90v5M135 90v5M130 95h5M140 90v5M135 95h5M145 90v5M140 95h5M150 95h5M160 90v5M165 90v5M160 95h5M170 95h5M190 90v5M185 95h5M190 95h5M200 90v5M210 90v5M205 95h5M215 90v5M215 95h5M220 95h5M230 90v5M235 90v5M230 95h5M235 95h5M245 95h5M250 95h5M260 90v5M265 90v5M270 90v5M275 90v5M275 95h5M280 95h5M285 95h5M295 90v5M290 95h5M300 90v5M295 95h5M305 90v5M305 95h5M315 90v5M320 90v5M320 95h5M330 90v5M335 90v5M335 95h5M345 90v5M340 95h5M350 90v5M345 95h5M355 95h5M365 90v5M370 90v5M365 95h5M375 90v5M0 100h5M10 95v5M15 95v5M10 100h5M25 95v5M45 95v5M40 100h5M50 95v5M45 100h5M55 95v5M65 95v5M60 100h5M80 95v5M75 100h5M80 100h5M90 95v5M95 95v5M90 100h5M95 100h5M105 95v5M110 95v5M105 100h5M115 95v5M125 95v5M120 100h5M135 100h5M145 95v5M140 100h5M150 95v5M165 95v5M160 100h5M175 95v5M170 100h5M180 95v5M175 100h5M185 95v5M185 100h5M200 95v5M205 100h5M210 100h5M225 95v5M220 100h5M230 100h5M240 95v5M240 100h5M255 95v5M270 100h5M275 100h5M295 100h5M305 100h5M315 95v5M310 100h5M320 95v5M325 95v5M330 95v5M335 95v5M340 95v5M340 100h5M350 100h5M360 95v5M355 100h5M370 95v5M365 100h5M375 95v5M370 100h5M15 100v5M20 100v5M15 105h5M25 100v5M30 100v5M25 105h5M35 100v5M30 105h5M40 100v5M35 105h5M40 105h5M55 100v5M50 105h5M60 100v5M55 105h5M70 100v5M65 105h5M80 100v5M80 105h5M85 105h5M95 100v5M90 105h5M105 100v5M115 100v5M120 100v5M115 105h5M120 105h5M130 100v5M125 105h5M140 100v5M135 105h5M145 100v5M150 100v5M145 105h5M155 100v5M160 100v5M160 105h5M165 105h5M180 100v5M175 105h5M190 100v5M195 100v5M200 100v5M195 105h5M200 105h5M215 100v5M210 105h5M220 100v5M215 105h5M220 105h5M235 100v5M230 105h5M235 105h5M245 100v5M240 105h5M250 100v5M245 105h5M255 100v5M250 105h5M260 100v5M265 100v5M260 105h5M275 100v5M270 105h5M280 100v5M285 100v5M280 105h5M290 100v5M290 105h5M300 100v5M295 105h5M300 105h5M305 105h5M310 105h5M320 100v5M315 105h5M320 105h5M335 100v5M340 105h5M350 100v5M345 105h5M355 100v5M360 100v5M360 105h5M370 100v5M365 105h5M375 100v5M5 105v5M0 110h5M10 105v5M10 110h5M20 105v5M15 110h5M30 105v5M25 110h5M35 110h5M40 110h5M50 110h5M60 105v5M55 110h5M65 105v5M75 105v5M70 110h5M80 105v5M90 105v5M85 110h5M90 110h5M100 105v5M105 105v5M110 105v5M105 110h5M120 105v5M115 110h5M125 105v5M125 110h5M150 105v5M155 105v5M150 110h5M155 110h5M160 110h5M170 105v5M165 110h5M175 105v5M170 110h5M175 110h5M185 105v5M190 105v5M195 105v5M190 110h5M195 110h5M200 110h5M220 105v5M215 110h5M220 110h5M225 110h5M230 110h5M240 105v5M235 110h5M245 105v5M250 105v5M255 105v5M265 105v5M260 110h5M270 105v5M275 105v5M280 105v5M285 105v5M285 110h5M290 110h5M315 105v5M310 110h5M320 105v5M320 110h5M330 105v5M335 105v5M330 110h5M345 105v5M355 105v5M350 110h5M360 105v5M360 110h5M370 105v5M375 105v5M0 115h5M10 110v5M10 115h5M30 110v5M25 115h5M35 110v5M30 115h5M35 115h5M40 115h5M50 110v5M55 110v5M65 110v5M70 110v5M65 115h5M70 115h5M80 115h5M95 110v5M100 110v5M95 115h5M105 110v5M100 115h5M105 115h5M115 115h5M130 110v5M125 115h5M135 110v5M140 110v5M145 110v5M140 115h5M150 115h5M155 115h5M160 115h5M175 110v5M170 115h5M175 115h5M185 110v5M185 115h5M190 115h5M205 110v5M200 115h5M210 110v5M205 115h5M235 110v5M240 110v5M250 110v5M255 110v5M260 110v5M255 115h5M260 115h5M270 115h5M275 115h5M285 115h5M295 110v5M300 110v5M295 115h5M305 110v5M305 115h5M320 115h5M340 110v5M345 110v5M340 115h5M350 115h5M355 115h5M365 110v5M360 115h5M375 110v5M370 115h5M10 115v5M5 120h5M20 115v5M20 120h5M40 115v5M40 120h5M50 115v5M60 115v5M60 120h5M70 115v5M65 120h5M70 120h5M80 115v5M85 115v5M90 115v5M95 115v5M95 120h5M105 120h5M120 115v5M115 120h5M125 115v5M125 120h5M135 115v5M135 120h5M145 115v5M155 115v5M150 120h5M155 120h5M160 120h5M180 115v5M175 120h5M185 115v5M185 120h5M210 115v5M205 120h5M215 115v5M210 120h5M220 115v5M215 120h5M225 115v5M220 120h5M230 115v5M225 120h5M230 120h5M240 115v5M235 120h5M245 115v5M240 120h5M250 115v5M255 115v5M260 115v5M265 115v5M275 115v5M285 115v5M280 120h5M290 115v5M295 115v5M290 120h5M300 115v5M305 115v5M305 120h5M315 115v5M320 115v5M315 120h5M320 120h5M330 115v5M325 120h5M335 115v5M330 120h5M335 120h5M340 120h5M360 115v5M355 120h5M365 115v5M375 115v5M370 120h5M5 120v5M10 120v5M15 120v5M10 125h5M20 120v5M15 125h5M30 120v5M35 120v5M45 120v5M50 120v5M45 125h5M55 120v5M50 125h5M65 120v5M60 125h5M65 125h5M70 125h5M80 120v5M80 125h5M90 120v5M95 120v5M90 125h5M95 125h5M105 120v5M105 125h5M120 120v5M115 125h5M130 120v5M125 125h5M135 120v5M130 125h5M135 125h5M145 120v5M150 120v5M155 120v5M160 120v5M160 125h5M170 120v5M165 125h5M175 120v5M175 125h5M190 120v5M185 125h5M195 120v5M190 125h5M200 120v5M200 125h5M210 120v5M215 125h5M225 120v5M220 125h5M225 125h5M235 125h5M240 125h5M255 120v5M250 125h5M255 125h5M260 125h5M270 120v5M275 120v5M270 125h5M280 120v5M280 125h5M295 120v5M290 125h5M300 120v5M300 125h5M310 120v5M305 125h5M310 125h5M320 120v5M315 125h5M335 120v5M335 125h5M345 120v5M350 120v5M345 125h5M355 120v5M360 120v5M365 120v5M375 120v5M370 125h5M5 130h5M15 125v5M10 130h5M15 130h5M25 125v5M30 125v5M25 130h5M35 125v5M40 125v5M45 125v5M40 130h5M50 130h5M65 125v5M60 130h5M65 130h5M75 125v5M75 130h5M85 125v5M80 130h5M95 125v5M90 130h5M95 130h5M105 125v5M105 130h5M120 125v5M115 130h5M135 125v5M145 125v5M155 130h5M165 125v5M165 130h5M175 125v5M185 130h5M195 125v5M190 130h5M205 125v5M200 130h5M220 125v5M225 130h5M230 130h5M240 125v5M235 130h5M245 125v5M245 130h5M250 130h5M260 125v5M255 130h5M260 130h5M275 125v5M270 130h5M280 125v5M275 130h5M285 125v5M290 125v5M295 130h5M300 130h5M305 130h5M315 130h5M325 125v5M330 125v5M340 130h5M350 125v5M350 130h5M355 130h5M360 130h5M375 125v5M370 130h5M0 135h5M10 130v5M10 135h5M20 135h5M30 130v5M35 130v5M30 135h5M40 130v5M45 130v5M50 130v5M45 135h5M50 135h5M70 130v5M65 135h5M90 130v5M95 130v5M100 130v5M110 130v5M105 135h5M115 130v5M115 135h5M125 130v5M130 130v5M125 135h5M135 130v5M130 135h5M140 130v5M135 135h5M145 130v5M150 130v5M150 135h5M160 130v5M155 135h5M165 130v5M160 135h5M170 130v5M175 130v5M170 135h5M180 130v5M175 135h5M190 130v5M185 135h5M200 130v5M205 130v5M210 130v5M205 135h5M215 130v5M210 135h5M225 135h5M240 130v5M250 130v5M245 135h5M260 130v5M255 135h5M265 130v5M270 130v5M270 135h5M280 130v5M280 135h5M295 130v5M300 130v5M300 135h5M310 130v5M310 135h5M320 130v5M325 130v5M320 135h5M330 130v5M325 135h5M335 130v5M330 135h5M340 130v5M335 135h5M340 135h5M350 135h5M365 130v5M360 135h5M375 130v5M370 135h5M10 135v5M5 140h5M15 135v5M20 135v5M35 135v5M30 140h5M35 140h5M45 135v5M40 140h5M60 135v5M65 135v5M70 135v5M75 135v5M80 135v5M85 135v5M85 140h5M95 135v5M95 140h5M110 135v5M105 140h5M115 135v5M115 140h5M120 140h5M130 135v5M135 135v5M140 135v5M145 135v5M140 140h5M145 140h5M155 140h5M160 140h5M180 135v5M175 140h5M180 140h5M190 135v5M185 140h5M195 135v5M200 140h5M210 135v5M205 140h5M220 135v5M215 140h5M230 135v5M225 140h5M235 135v5M230 140h5M235 140h5M245 140h5M250 140h5M255 140h5M265 135v5M265 140h5M275 140h5M280 140h5M290 135v5M290 140h5M295 140h5M300 140h5M305 140h5M315 135v5M310 140h5M320 135v5M325 140h5M330 140h5M340 135v5M345 135v5M350 135v5M355 135v5M365 135v5M360 140h5M370 135v5M365 140h5M375 135v5M0 145h5M10 140v5M5 145h5M10 145h5M20 140v5M25 140v5M20 145h5M40 140v5M35 145h5M50 140v5M55 140v5M50 145h5M60 140v5M60 145h5M70 140v5M65 145h5M75 140v5M70 145h5M80 140v5M75 145h5M90 140v5M85 145h5M90 145h5M100 140v5M95 145h5M110 140v5M105 145h5M120 140v5M115 145h5M120 145h5M130 145h5M140 140v5M145 140v5M150 145h5M160 140v5M170 140v5M180 140v5M180 145h5M190 140v5M195 140v5M190 145h5M205 140v5M200 145h5M210 140v5M215 140v5M210 145h5M215 145h5M220 145h5M235 140v5M240 140v5M245 145h5M255 140v5M250 145h5M260 140v5M260 145h5M270 140v5M280 140v5M285 140v5M310 140v5M310 145h5M315 145h5M325 140v5M320 145h5M335 140v5M330 145h5M345 140v5M350 140v5M345 145h5M350 145h5M360 145h5M370 140v5M365 145h5M375 140v5M5 150h5M10 150h5M25 145v5M30 145v5M25 150h5M35 145v5M45 145v5M40 150h5M50 145v5M45 150h5M50 150h5M65 145v5M60 150h5M65 150h5M75 150h5M85 145v5M85 150h5M95 145v5M95 150h5M110 145v5M105 150h5M110 150h5M120 145v5M115 150h5M135 145v5M130 150h5M135 150h5M145 145v5M150 145v5M145 150h5M160 145v5M155 150h5M165 145v5M160 150h5M170 145v5M175 145v5M185 145v5M180 150h5M185 150h5M190 150h5M200 150h5M210 145v5M205 150h5M210 150h5M215 150h5M220 150h5M230 145v5M230 150h5M240 145v5M245 145v5M240 150h5M245 150h5M265 145v5M260 150h5M270 145v5M265 150h5M275 145v5M285 145v5M280 150h5M290 145v5M285 150h5M295 145v5M290 150h5M300 145v5M295 150h5M305 145v5M300 150h5M305 150h5M330 145v5M325 150h5M330 150h5M340 145v5M335 150h5M340 150h5M350 145v5M345 150h5M360 145v5M355 150h5M365 145v5M365 150h5M375 145v5M15 150v5M10 155h5M20 150v5M20 155h5M30 150v5M35 150v5M40 150v5M35 155h5M40 155h5M45 155h5M55 155h5M65 150v5M65 155h5M75 150v5M85 150v5M85 155h5M90 155h5M95 155h5M105 155h5M120 150v5M115 155h5M125 150v5M120 155h5M130 150v5M135 150v5M140 150v5M145 150v5M145 155h5M165 150v5M160 155h5M170 150v5M175 150v5M170 155h5M180 155h5M185 155h5M195 150v5M190 155h5M205 155h5M215 150v5M220 150v5M225 150v5M230 150v5M235 150v5M240 155h5M255 150v5M250 155h5M260 155h5M270 150v5M265 155h5M275 150v5M270 155h5M275 155h5M290 155h5M300 150v5M295 155h5M300 155h5M315 150v5M310 155h5M320 150v5M325 150v5M320 155h5M335 155h5M340 155h5M350 150v5M350 155h5M360 155h5M375 150v5M5 155v5M10 155v5M5 160h5M25 155v5M30 155v5M25 160h5M35 155v5M45 160h5M55 155v5M50 160h5M55 160h5M65 155v5M75 155v5M70 160h5M80 155v5M80 160h5M90 155v5M90 160h5M100 160h5M110 155v5M105 160h5M110 160h5M120 155v5M115 160h5M125 160h5M140 155v5M135 160h5M145 155v5M140 160h5M155 155v5M165 155v5M160 160h5M170 155v5M175 155v5M185 155v5M180 160h5M190 160h5M200 155v5M200 160h5M210 155v5M205 160h5M215 155v5M210 160h5M225 155v5M235 155v5M230 160h5M245 155v5M245 160h5M255 155v5M260 160h5M275 155v5M270 160h5M280 155v5M285 155v5M280 160h5M285 160h5M295 155v5M290 160h5M300 155v5M305 155v5M310 155v5M310 160h5M325 155v5M320 160h5M330 155v5M325 160h5M340 155v5M335 160h5M345 155v5M350 155v5M345 160h5M360 155v5M370 155v5M375 155v5M370 160h5M5 160v5M5 165h5M15 160v5M20 160v5M15 165h5M25 160v5M35 160v5M40 160v5M35 165h5M45 160v5M40 165h5M45 165h5M50 165h5M55 165h5M65 160v5M60 165h5M70 160v5M65 165h5M75 165h5M85 160v5M90 160v5M85 165h5M110 160v5M105 165h5M110 165h5M120 165h5M130 160v5M125 165h5M135 160v5M140 160v5M140 165h5M150 160v5M145 165h5M155 160v5M150 165h5M160 160v5M155 165h5M160 165h5M165 165h5M175 160v5M180 160v5M175 165h5M185 160v5M190 160v5M185 165h5M195 165h5M200 165h5M210 165h5M220 160v5M225 160v5M220 165h5M230 160v5M225 165h5M235 160v5M240 160v5M235 165h5M245 160v5M245 165h5M255 160v5M265 160v5M260 165h5M275 165h5M285 160v5M290 160v5M295 165h5M305 160v5M310 160v5M305 165h5M310 165h5M320 165h5M340 165h5M350 160v5M345 165h5M355 160v5M350 165h5M360 160v5M355 165h5M365 160v5M360 165h5M375 160v5M10 165v5M5 170h5M10 170h5M20 165v5M25 165v5M30 165v5M25 170h5M35 165v5M30 170h5M40 165v5M50 165v5M45 170h5M50 170h5M55 170h5M75 165v5M70 170h5M90 165v5M95 165v5M90 170h5M100 165v5M95 170h5M110 165v5M105 170h5M115 165v5M120 170h5M130 165v5M125 170h5M130 170h5M150 170h5M155 170h5M160 170h5M170 165v5M175 165v5M180 170h5M190 170h5M200 165v5M200 170h5M210 165v5M215 165v5M220 165v5M215 170h5M235 165v5M230 170h5M240 165v5M250 165v5M245 170h5M255 165v5M260 165v5M255 170h5M260 170h5M270 165v5M270 170h5M280 165v5M280 170h5M300 165v5M295 170h5M305 165v5M300 170h5M310 165v5M315 165v5M325 165v5M330 165v5M335 165v5M330 170h5M335 170h5M350 165v5M345 170h5M350 170h5M355 170h5M370 165v5M375 165v5M370 170h5M15 170v5M10 175h5M20 170v5M15 175h5M20 175h5M30 175h5M40 170v5M45 170v5M45 175h5M65 170v5M60 175h5M70 170v5M65 175h5M75 170v5M80 170v5M85 170v5M90 170v5M85 175h5M110 170v5M105 175h5M115 175h5M125 170v5M135 170v5M140 170v5M145 170v5M140 175h5M145 175h5M160 170v5M155 175h5M160 175h5M170 170v5M165 175h5M175 170v5M180 170v5M180 175h5M195 170v5M190 175h5M200 170v5M195 175h5M225 170v5M220 175h5M230 170v5M225 175h5M230 175h5M250 170v5M245 175h5M250 175h5M255 175h5M265 170v5M260 175h5M265 175h5M275 170v5M270 175h5M275 175h5M285 170v5M290 170v5M285 175h5M295 170v5M290 175h5M300 170v5M305 175h5M315 170v5M320 170v5M325 170v5M335 170v5M330 175h5M340 170v5M345 175h5M355 170v5M350 175h5M355 175h5M365 170v5M365 175h5M375 170v5M370 175h5M5 175v5M5 180h5M15 175v5M10 180h5M20 180h5M35 175v5M30 180h5M45 175v5M40 180h5M45 180h5M55 175v5M55 180h5M65 175v5M60 180h5M65 180h5M80 175v5M85 175v5M80 180h5M85 180h5M95 175v5M90 180h5M100 175v5M95 180h5M105 175v5M105 180h5M120 175v5M130 175v5M135 175v5M145 175v5M140 180h5M145 180h5M150 180h5M160 175v5M165 175v5M170 175v5M175 175v5M170 180h5M180 175v5M185 180h5M190 180h5M200 175v5M205 175v5M200 180h5M210 175v5M205 180h5M215 175v5M210 180h5M225 175v5M220 180h5M225 180h5M235 175v5M240 175v5M235 180h5M250 175v5M245 180h5M255 180h5M265 180h5M275 175v5M270 180h5M275 180h5M285 180h5M295 175v5M290 180h5M300 180h5M310 175v5M315 175v5M320 175v5M315 180h5M325 175v5M320 180h5M325 180h5M335 175v5M330 180h5M340 175v5M340 180h5M350 180h5M360 175v5M355 180h5M365 175v5M375 175v5M370 180h5M5 185h5M15 180v5M10 185h5M25 180v5M20 185h5M30 180v5M35 180v5M35 185h5M45 180v5M40 185h5M55 180v5M50 185h5M60 185h5M75 180v5M90 180v5M85 185h5M95 180v5M100 180v5M105 180v5M110 180v5M115 180v5M120 180v5M115 185h5M125 180v5M120 185h5M130 180v5M135 180v5M130 185h5M145 185h5M155 180v5M150 185h5M170 180v5M165 185h5M170 185h5M180 180v5M175 185h5M190 180v5M185 185h5M195 180v5M210 180v5M205 185h5M210 185h5M225 185h5M235 180v5M235 185h5M250 185h5M260 180v5M255 185h5M260 185h5M265 185h5M275 180v5M280 185h5M285 185h5M300 180v5M295 185h5M305 180v5M310 180v5M305 185h5M310 185h5M320 180v5M325 185h5M330 185h5M345 180v5M340 185h5M350 180v5M350 185h5M355 185h5M375 180v5M10 185v5M5 190h5M10 190h5M20 185v5M25 190h5M35 190h5M45 185v5M50 185v5M45 190h5M65 185v5M60 190h5M70 185v5M75 185v5M70 190h5M80 185v5M75 190h5M85 185v5M90 185v5M90 190h5M110 185v5M105 190h5M115 185v5M110 190h5M115 190h5M120 190h5M135 185v5M130 190h5M140 185v5M135 190h5M155 185v5M150 190h5M160 185v5M165 190h5M175 185v5M170 190h5M175 190h5M195 185v5M190 190h5M200 185v5M210 185v5M205 190h5M220 185v5M215 190h5M230 185v5M235 185v5M240 185v5M245 185v5M240 190h5M250 185v5M255 190h5M270 185v5M275 185v5M270 190h5M280 185v5M275 190h5M285 185v5M285 190h5M305 185v5M310 185v5M310 190h5M335 185v5M330 190h5M335 190h5M345 185v5M350 185v5M345 190h5M350 190h5M355 190h5M365 185v5M370 185v5M365 190h5M375 185v5M370 190h5M5 190v5M0 195h5M20 190v5M15 195h5M25 190v5M20 195h5M25 195h5M40 190v5M35 195h5M45 190v5M40 195h5M45 195h5M55 190v5M50 195h5M60 190v5M55 195h5M60 195h5M70 190v5M70 195h5M80 190v5M85 190v5M80 195h5M95 190v5M90 195h5M100 190v5M110 190v5M105 195h5M125 190v5M140 190v5M135 195h5M145 190v5M140 195h5M155 190v5M150 195h5M160 190v5M155 195h5M160 195h5M175 190v5M170 195h5M180 190v5M185 190v5M190 190v5M185 195h5M190 195h5M200 190v5M195 195h5M205 190v5M210 190v5M215 190v5M215 195h5M225 190v5M230 190v5M235 190v5M245 195h5M255 190v5M260 190v5M265 190v5M260 195h5M270 190v5M280 190v5M275 195h5M285 195h5M295 190v5M290 195h5M300 190v5M310 190v5M305 195h5M310 195h5M320 190v5M325 190v5M320 195h5M340 190v5M335 195h5M340 195h5M350 190v5M345 195h5M365 195h5M375 190v5M370 195h5M10 195v5M5 200h5M15 195v5M15 200h5M25 195v5M30 200h5M40 195v5M35 200h5M45 195v5M45 200h5M55 195v5M55 200h5M65 195v5M70 195v5M75 195v5M75 200h5M90 200h5M100 195v5M105 200h5M115 195v5M120 195v5M115 200h5M125 195v5M130 195v5M125 200h5M145 195v5M150 200h5M160 195v5M155 200h5M160 200h5M175 195v5M170 200h5M190 195v5M195 195v5M200 195v5M205 195v5M205 200h5M215 195v5M215 200h5M225 195v5M220 200h5M230 195v5M235 195v5M230 200h5M240 195v5M245 195v5M240 200h5M250 195v5M260 195v5M255 200h5M265 195v5M265 200h5M270 200h5M280 195v5M275 200h5M280 200h5M290 195v5M285 200h5M290 200h5M300 195v5M305 200h5M315 195v5M320 195v5M315 200h5M325 195v5M330 195v5M325 200h5M335 195v5M330 200h5M345 195v5M350 195v5M355 195v5M350 200h5M360 195v5M355 200h5M375 195v5M5 200v5M10 200v5M10 205h5M20 200v5M15 205h5M25 205h5M40 200v5M50 200v5M45 205h5M50 205h5M55 205h5M60 205h5M75 200v5M80 200v5M85 200v5M95 200v5M90 205h5M100 200v5M95 205h5M110 200v5M115 200v5M125 200v5M120 205h5M130 200v5M135 200v5M140 200v5M145 200v5M140 205h5M145 205h5M150 205h5M160 200v5M175 200v5M170 205h5M180 200v5M185 200v5M200 200v5M195 205h5M210 200v5M215 200v5M210 205h5M220 200v5M225 200v5M230 200v5M225 205h5M230 205h5M240 200v5M270 205h5M280 200v5M280 205h5M295 200v5M290 205h5M300 200v5M295 205h5M310 200v5M305 205h5M310 205h5M325 200v5M320 205h5M330 205h5M340 200v5M350 200v5M360 200v5M355 205h5M365 200v5M360 205h5M370 200v5M375 200v5M370 205h5M5 205v5M5 210h5M15 210h5M30 205v5M35 205v5M30 210h5M40 210h5M50 205v5M50 210h5M60 210h5M70 205v5M65 210h5M75 205v5M75 210h5M85 205v5M95 205v5M90 210h5M95 210h5M105 205v5M100 210h5M110 205v5M115 205v5M125 205v5M120 210h5M130 205v5M135 205v5M130 210h5M145 205v5M150 205v5M155 205v5M160 205v5M155 210h5M165 205v5M165 210h5M175 205v5M170 210h5M180 205v5M175 210h5M185 205v5M190 205v5M185 210h5M195 205v5M195 210h5M205 205v5M210 210h5M220 205v5M215 210h5M230 205v5M225 210h5M230 210h5M240 205v5M235 210h5M245 205v5M240 210h5M250 205v5M255 205v5M250 210h5M260 205v5M255 210h5M265 205v5M275 205v5M270 210h5M275 210h5M295 205v5M290 210h5M300 205v5M315 205v5M310 210h5M335 205v5M330 210h5M340 205v5M345 205v5M340 210h5M345 210h5M355 205v5M360 205v5M360 210h5M365 210h5M375 205v5M5 210v5M0 215h5M20 210v5M25 210v5M20 215h5M35 210v5M30 215h5M40 210v5M35 215h5M40 215h5M50 210v5M45 215h5M50 215h5M55 215h5M65 210v5M60 215h5M70 210v5M75 210v5M70 215h5M75 215h5M85 210v5M80 215h5M95 215h5M105 210v5M100 215h5M110 210v5M115 210v5M110 215h5M130 210v5M125 215h5M140 210v5M140 215h5M145 215h5M160 210v5M155 215h5M170 210v5M165 215h5M175 210v5M180 210v5M185 210v5M185 215h5M195 210v5M190 215h5M205 210v5M200 215h5M215 215h5M235 210v5M230 215h5M240 210v5M250 215h5M260 210v5M255 215h5M265 210v5M260 215h5M265 215h5M275 210v5M275 215h5M285 210v5M285 215h5M295 210v5M290 215h5M300 210v5M305 210v5M300 215h5M310 210v5M305 215h5M310 215h5M320 210v5M325 210v5M320 215h5M335 210v5M330 215h5M340 210v5M335 215h5M350 210v5M345 215h5M350 215h5M355 215h5M360 215h5M370 210v5M375 210v5M0 220h5M10 215v5M15 215v5M10 220h5M20 215v5M15 220h5M30 220h5M40 215v5M40 220h5M55 215v5M60 215v5M60 220h5M70 215v5M70 220h5M75 220h5M90 215v5M85 220h5M90 220h5M95 220h5M105 215v5M115 215v5M110 220h5M120 215v5M130 215v5M125 220h5M135 215v5M130 220h5M140 220h5M150 215v5M145 220h5M150 220h5M160 215v5M155 220h5M165 215v5M160 220h5M170 215v5M175 220h5M195 215v5M190 220h5M195 220h5M205 215v5M200 220h5M210 215v5M205 220h5M215 215v5M210 220h5M215 220h5M225 215v5M230 215v5M230 220h5M245 215v5M245 220h5M260 215v5M255 220h5M260 220h5M265 220h5M275 215v5M280 215v5M280 220h5M290 215v5M285 220h5M295 215v5M310 215v5M310 220h5M325 215v5M320 220h5M325 220h5M350 220h5M360 215v5M355 220h5M365 215v5M370 215v5M375 215v5M370 220h5M0 225h5M15 220v5M25 220v5M20 225h5M30 220v5M35 220v5M40 220v5M35 225h5M40 225h5M50 220v5M50 225h5M60 220v5M65 220v5M65 225h5M70 225h5M80 225h5M90 225h5M100 220v5M95 225h5M105 220v5M100 225h5M110 220v5M105 225h5M110 225h5M120 220v5M125 220v5M120 225h5M125 225h5M130 225h5M140 220v5M145 220v5M150 225h5M160 220v5M155 225h5M165 225h5M180 220v5M175 225h5M185 220v5M180 225h5M205 220v5M200 225h5M210 220v5M215 220v5M220 220v5M225 220v5M235 220v5M230 225h5M240 220v5M250 220v5M255 220v5M260 220v5M265 220v5M265 225h5M270 225h5M280 220v5M285 225h5M290 225h5M300 220v5M295 225h5M305 220v5M300 225h5M310 220v5M310 225h5M320 220v5M320 225h5M325 225h5M335 220v5M340 220v5M335 225h5M345 220v5M340 225h5M365 220v5M360 225h5M370 220v5M365 225h5M375 220v5M10 225v5M15 225v5M15 230h5M25 225v5M20 230h5M35 225v5M40 230h5M50 225v5M50 230h5M60 230h5M65 230h5M70 230h5M80 225v5M85 225v5M90 225v5M95 225v5M105 230h5M110 230h5M125 225v5M120 230h5M130 225v5M135 230h5M145 225v5M150 225v5M155 225v5M160 225v5M170 225v5M165 230h5M180 225v5M180 230h5M190 225v5M195 225v5M190 230h5M195 230h5M205 225v5M205 230h5M215 230h5M225 225v5M225 230h5M235 225v5M230 230h5M240 225v5M245 225v5M240 230h5M250 225v5M245 230h5M250 230h5M260 225v5M270 225v5M265 230h5M275 225v5M280 230h5M300 225v5M295 230h5M305 225v5M310 225v5M305 230h5M315 225v5M330 225v5M325 230h5M335 225v5M340 225v5M350 225v5M345 230h5M355 225v5M350 230h5M365 230h5M375 225v5M370 230h5M5 230v5M10 230v5M5 235h5M15 230v5M10 235h5M15 235h5M30 230v5M35 230v5M30 235h5M45 230v5M40 235h5M55 230v5M50 235h5M60 230v5M55 235h5M65 230v5M65 235h5M70 235h5M85 230v5M80 235h5M90 230v5M85 235h5M95 230v5M100 230v5M95 235h5M110 230v5M120 235h5M130 230v5M135 230v5M130 235h5M140 230v5M155 230v5M150 235h5M155 235h5M165 230v5M170 230v5M175 230v5M180 230v5M185 230v5M190 235h5M200 230v5M210 230v5M205 235h5M220 230v5M235 230v5M245 230v5M240 235h5M245 235h5M255 235h5M270 230v5M265 235h5M275 230v5M275 235h5M285 230v5M280 235h5M290 230v5M290 235h5M305 230v5M305 235h5M320 230v5M320 235h5M330 230v5M325 235h5M335 230v5M330 235h5M335 235h5M345 235h5M355 230v5M360 230v5M375 230v5M370 235h5M5 235v5M10 235v5M15 235v5M25 235v5M20 240h5M30 235v5M35 235v5M40 235v5M35 240h5M45 235v5M50 235v5M45 240h5M50 240h5M75 235v5M70 240h5M80 240h5M95 235v5M90 240h5M95 240h5M105 235v5M110 235v5M105 240h5M115 235v5M110 240h5M120 235v5M120 240h5M125 240h5M135 235v5M130 240h5M140 235v5M145 235v5M150 235v5M145 240h5M155 235v5M160 235v5M165 235v5M160 240h5M175 235v5M180 235v5M175 240h5M180 240h5M195 235v5M190 240h5M200 235v5M195 240h5M205 235v5M205 240h5M215 235v5M220 235v5M215 240h5M225 235v5M230 235v5M235 235v5M240 235v5M245 235v5M245 240h5M260 235v5M270 235v5M265 240h5M275 235v5M280 235v5M280 240h5M285 240h5M295 235v5M300 235v5M295 240h5M305 235v5M300 240h5M315 235v5M315 240h5M325 235v5M330 240h5M340 235v5M345 235v5M340 240h5M345 240h5M355 235v5M360 235v5M355 240h5M365 235v5M360 240h5M365 240h5M375 235v5M5 240v5M5 245h5M10 245h5M20 240v5M15 245h5M20 245h5M30 240v5M25 245h5M30 245h5M35 245h5M40 245h5M50 245h5M60 240v5M65 240v5M60 245h5M65 245h5M70 245h5M80 240v5M80 245h5M85 245h5M90 245h5M100 240v5M105 240v5M105 245h5M115 245h5M130 240v5M125 245h5M140 240v5M135 245h5M145 245h5M150 245h5M160 240v5M155 245h5M165 240v5M170 240v5M165 245h5M185 240v5M180 245h5M185 245h5M195 240v5M190 245h5M195 245h5M205 240v5M205 245h5M210 245h5M220 240v5M225 240v5M220 245h5M230 240v5M235 240v5M230 245h5M245 240v5M255 240v5M250 245h5M260 240v5M260 245h5M270 245h5M275 245h5M290 240v5M285 245h5M295 240v5M290 245h5M300 240v5M305 240v5M310 240v5M305 245h5M315 240v5M320 240v5M325 245h5M335 240v5M330 245h5M340 240v5M335 245h5M350 240v5M345 245h5M350 245h5M355 245h5M360 245h5M370 240v5M365 245h5M375 240v5M5 245v5M5 250h5M10 250h5M25 245v5M20 250h5M25 250h5M35 250h5M40 250h5M50 245v5M50 250h5M60 245v5M55 250h5M60 250h5M70 250h5M75 250h5M90 245v5M90 250h5M100 245v5M95 250h5M105 245v5M100 250h5M115 245v5M115 250h5M120 250h5M135 245v5M135 250h5M145 245v5M145 250h5M155 245v5M160 245v5M170 245v5M165 250h5M175 245v5M170 250h5M180 245v5M175 250h5M190 245v5M185 250h5M190 250h5M195 250h5M205 250h5M215 245v5M225 245v5M220 250h5M225 250h5M235 245v5M230 250h5M240 245v5M235 250h5M245 245v5M240 250h5M250 245v5M245 250h5M255 245v5M260 245v5M260 250h5M275 245v5M270 250h5M275 250h5M290 250h5M305 245v5M310 245v5M315 245v5M310 250h5M315 250h5M320 250h5M330 250h5M335 250h5M340 250h5M360 245v5M355 250h5M370 245v5M365 250h5M375 245v5M370 250h5M10 250v5M5 255h5M10 255h5M25 255h5M40 250v5M35 255h5M55 250v5M50 255h5M55 255h5M60 255h5M75 250v5M85 250v5M95 250v5M95 255h5M100 255h5M110 250v5M105 255h5M120 250v5M120 255h5M130 250v5M125 255h5M135 250v5M140 255h5M155 255h5M165 255h5M170 255h5M180 250v5M175 255h5M190 250v5M185 255h5M200 250v5M195 255h5M200 255h5M210 250v5M215 250v5M220 255h5M225 255h5M230 255h5M240 250v5M235 255h5M240 255h5M245 255h5M250 255h5M260 250v5M255 255h5M280 250v5M285 250v5M295 250v5M300 250v5M295 255h5M300 255h5M305 255h5M315 250v5M310 255h5M330 255h5M335 255h5M345 250v5M340 255h5M350 250v5M350 255h5M355 255h5M360 255h5M375 250v5M5 255v5M0 260h5M5 260h5M10 260h5M20 255v5M15 260h5M25 255v5M20 260h5M25 260h5M35 255v5M30 260h5M40 255v5M45 255v5M40 260h5M50 260h5M65 255v5M60 260h5M70 255v5M75 255v5M80 255v5M75 260h5M85 255v5M90 255v5M85 260h5M100 255v5M95 260h5M105 255v5M115 255v5M110 260h5M125 255v5M130 255v5M135 255v5M140 255v5M135 260h5M140 260h5M150 255v5M155 255v5M150 260h5M160 255v5M165 260h5M175 260h5M180 260h5M185 260h5M195 255v5M200 255v5M200 260h5M210 255v5M205 260h5M215 255v5M210 260h5M220 260h5M230 255v5M235 255v5M240 255v5M245 255v5M255 255v5M250 260h5M265 255v5M270 255v5M275 255v5M280 255v5M275 260h5M285 255v5M280 260h5M290 255v5M285 260h5M300 260h5M305 260h5M315 255v5M310 260h5M320 255v5M315 260h5M325 255v5M320 260h5M325 260h5M340 255v5M345 255v5M350 255v5M345 260h5M355 255v5M355 260h5M360 260h5M370 255v5M375 255v5M370 260h5M0 265h5M5 265h5M10 265h5M20 265h5M30 265h5M55 260v5M50 265h5M60 260v5M70 260v5M70 265h5M80 260v5M85 260v5M85 265h5M95 265h5M105 260v5M105 265h5M115 260v5M110 265h5M120 260v5M115 265h5M130 260v5M145 260v5M150 260v5M145 265h5M155 265h5M165 260v5M160 265h5M170 265h5M180 260v5M175 265h5M180 265h5M195 265h5M200 265h5M210 260v5M205 265h5M215 260v5M220 260v5M220 265h5M235 260v5M230 265h5M245 260v5M240 265h5M250 260v5M255 260v5M260 260v5M265 260v5M260 265h5M270 260v5M265 265h5M280 260v5M275 265h5M280 265h5M295 260v5M290 265h5M305 260v5M300 265h5M305 265h5M315 260v5M320 265h5M330 260v5M325 265h5M335 260v5M330 265h5M340 260v5M335 265h5M350 260v5M345 265h5M355 260v5M355 265h5M365 260v5M365 265h5M375 260v5M370 265h5M25 265v5M20 270h5M30 265v5M25 270h5M40 265v5M35 270h5M45 265v5M50 265v5M45 270h5M50 270h5M60 265v5M65 265v5M60 270h5M70 265v5M75 265v5M80 265v5M80 270h5M90 265v5M85 270h5M95 265v5M100 265v5M110 265v5M110 270h5M125 265v5M130 265v5M125 270h5M135 265v5M140 265v5M135 270h5M145 265v5M140 270h5M145 270h5M160 265v5M165 265v5M170 265v5M175 265v5M185 265v5M180 270h5M190 265v5M195 270h5M210 265v5M205 270h5M210 270h5M225 265v5M235 270h5M240 270h5M255 265v5M250 270h5M260 270h5M270 265v5M265 270h5M275 265v5M270 270h5M275 270h5M295 265v5M290 270h5M300 270h5M305 270h5M320 265v5M315 270h5M325 265v5M330 265v5M335 270h5M350 265v5M345 270h5M355 265v5M370 265v5M365 270h5M375 265v5M5 270v5M10 270v5M15 270v5M10 275h5M25 270v5M20 275h5M25 275h5M30 275h5M40 270v5M35 275h5M45 270v5M50 270v5M50 275h5M60 270v5M55 275h5M65 270v5M70 270v5M65 275h5M70 275h5M85 270v5M80 275h5M90 270v5M100 270v5M95 275h5M105 270v5M100 275h5M110 270v5M110 275h5M120 270v5M125 270v5M120 275h5M135 275h5M150 270v5M145 275h5M155 270v5M160 270v5M160 275h5M165 275h5M170 275h5M185 270v5M180 275h5M190 270v5M185 275h5M195 270v5M190 275h5M195 275h5M200 275h5M210 270v5M210 275h5M220 270v5M215 275h5M225 270v5M220 275h5M230 270v5M230 275h5M240 270v5M235 275h5M245 270v5M255 270v5M250 275h5M260 270v5M255 275h5M265 270v5M275 270v5M270 275h5M280 270v5M285 270v5M285 275h5M295 270v5M305 270v5M300 275h5M310 270v5M310 275h5M335 270v5M335 275h5M340 275h5M360 270v5M360 275h5M375 270v5M370 275h5M5 275v5M15 275v5M25 275v5M20 280h5M25 280h5M45 280h5M50 280h5M60 280h5M70 275v5M80 275v5M80 280h5M95 280h5M105 275v5M100 280h5M115 275v5M115 280h5M125 275v5M120 280h5M130 275v5M135 275v5M130 280h5M145 275v5M140 280h5M150 275v5M155 275v5M150 280h5M160 280h5M170 275v5M190 275v5M200 275v5M195 280h5M200 280h5M210 280h5M215 280h5M225 275v5M220 280h5M230 280h5M245 275v5M240 280h5M245 280h5M255 275v5M250 280h5M255 280h5M265 275v5M270 280h5M280 275v5M275 280h5M285 275v5M280 280h5M285 280h5M295 275v5M290 280h5M300 280h5M315 275v5M310 280h5M320 275v5M325 275v5M320 280h5M330 275v5M335 280h5M345 275v5M340 280h5M350 275v5M355 275v5M355 280h5M365 275v5M375 275v5M370 280h5M5 280v5M0 285h5M10 280v5M15 280v5M10 285h5M20 280v5M15 285h5M35 280v5M30 285h5M40 280v5M35 285h5M45 285h5M55 280v5M50 285h5M65 280v5M60 285h5M70 280v5M65 285h5M75 280v5M80 280v5M75 285h5M80 285h5M90 280v5M85 285h5M95 280v5M95 285h5M105 280v5M110 280v5M115 280v5M110 285h5M115 285h5M120 285h5M135 280v5M130 285h5M140 280v5M145 280v5M150 280v5M155 280v5M160 280v5M160 285h5M170 280v5M165 285h5M175 280v5M170 285h5M180 280v5M175 285h5M185 280v5M200 280v5M200 285h5M210 285h5M220 280v5M215 285h5M220 285h5M230 280v5M235 280v5M235 285h5M245 280v5M240 285h5M250 280v5M260 280v5M255 285h5M275 280v5M270 285h5M285 280v5M280 285h5M285 285h5M290 285h5M305 280v5M300 285h5M310 280v5M315 280v5M315 285h5M325 280v5M320 285h5M330 280v5M325 285h5M335 280v5M330 285h5M340 280v5M350 280v5M345 285h5M355 280v5M360 280v5M365 280v5M360 285h5M365 285h5M375 280v5M370 285h5M15 285v5M15 290h5M25 285v5M30 285v5M30 290h5M40 285v5M45 285v5M55 285v5M50 290h5M60 290h5M70 285v5M65 290h5M75 285v5M70 290h5M75 290h5M95 285v5M95 290h5M110 285v5M115 290h5M135 285v5M130 290h5M140 290h5M150 285v5M145 290h5M150 290h5M165 290h5M180 285v5M185 285v5M190 285v5M185 290h5M195 285v5M205 285v5M200 290h5M210 285v5M205 290h5M215 285v5M235 285v5M240 285v5M240 290h5M245 290h5M255 285v5M260 285v5M265 285v5M270 285v5M265 290h5M280 285v5M275 290h5M285 285v5M290 285v5M290 290h5M295 290h5M305 285v5M300 290h5M315 285v5M320 290h5M325 290h5M335 285v5M330 290h5M340 285v5M350 285v5M345 290h5M350 290h5M365 285v5M360 290h5M375 285v5M370 290h5M5 290v5M10 290v5M15 290v5M10 295h5M25 290v5M20 295h5M30 290v5M25 295h5M45 290v5M50 290v5M55 290v5M60 295h5M70 290v5M65 295h5M70 295h5M75 295h5M85 290v5M80 295h5M90 290v5M100 290v5M95 295h5M105 290v5M110 290v5M115 290v5M110 295h5M120 290v5M125 290v5M120 295h5M130 290v5M130 295h5M135 295h5M145 290v5M150 290v5M160 290v5M160 295h5M170 290v5M175 290v5M170 295h5M180 290v5M185 290v5M180 295h5M185 295h5M195 290v5M190 295h5M210 290v5M205 295h5M215 290v5M220 290v5M215 295h5M225 290v5M220 295h5M230 290v5M225 295h5M235 290v5M240 295h5M265 295h5M275 295h5M280 295h5M290 290v5M295 290v5M295 295h5M300 295h5M310 290v5M310 295h5M325 290v5M320 295h5M330 295h5M340 290v5M335 295h5M340 295h5M355 290v5M350 295h5M355 295h5M365 290v5M360 295h5M375 290v5M370 295h5M5 295v5M0 300h5M10 295v5M5 300h5M15 295v5M15 300h5M25 295v5M20 300h5M35 295v5M40 295v5M35 300h5M45 300h5M55 295v5M50 300h5M65 295v5M65 300h5M75 295v5M80 300h5M90 295v5M95 295v5M95 300h5M105 295v5M110 295v5M105 300h5M110 300h5M120 300h5M125 300h5M140 295v5M135 300h5M145 295v5M140 300h5M145 300h5M155 295v5M165 295v5M160 300h5M170 295v5M170 300h5M180 300h5M195 295v5M190 300h5M200 295v5M205 295v5M200 300h5M210 300h5M220 295v5M215 300h5M225 295v5M225 300h5M230 300h5M245 295v5M240 300h5M250 295v5M255 295v5M260 295v5M255 300h5M270 295v5M265 300h5M270 300h5M280 295v5M275 300h5M285 300h5M300 295v5M300 300h5M310 295v5M305 300h5M325 295v5M320 300h5M330 300h5M345 295v5M340 300h5M345 300h5M355 295v5M350 300h5M355 300h5M360 300h5M375 295v5M370 300h5M5 300v5M10 300v5M15 300v5M25 300v5M20 305h5M30 300v5M25 305h5M35 300v5M30 305h5M35 305h5M45 300v5M45 305h5M55 300v5M60 300v5M70 300v5M65 305h5M75 300v5M80 300v5M90 300v5M95 300v5M90 305h5M100 300v5M105 300v5M100 305h5M110 305h5M130 300v5M140 305h5M150 300v5M145 305h5M155 300v5M165 300v5M165 305h5M175 300v5M170 305h5M175 305h5M185 300v5M180 305h5M190 300v5M185 305h5M195 300v5M200 300v5M195 305h5M200 305h5M210 305h5M215 305h5M230 300v5M225 305h5M235 305h5M245 300v5M240 305h5M250 300v5M245 305h5M255 300v5M260 300v5M265 305h5M275 300v5M275 305h5M285 300v5M285 305h5M295 300v5M295 305h5M305 300v5M300 305h5M305 305h5M315 300v5M315 305h5M320 305h5M330 300v5M335 300v5M335 305h5M345 300v5M340 305h5M350 300v5M350 305h5M360 305h5M375 300v5M0 310h5M5 310h5M15 310h5M25 305v5M25 310h5M30 310h5M35 310h5M45 310h5M55 305v5M50 310h5M60 305v5M55 310h5M60 310h5M70 305v5M65 310h5M80 305v5M85 305v5M80 310h5M85 310h5M95 305v5M90 310h5M95 310h5M110 305v5M105 310h5M110 310h5M120 305v5M125 305v5M120 310h5M130 305v5M125 310h5M135 305v5M135 310h5M145 305v5M140 310h5M155 305v5M150 310h5M160 305v5M155 310h5M170 305v5M165 310h5M175 305v5M180 305v5M185 305v5M190 305v5M200 305v5M200 310h5M210 305v5M215 305v5M220 305v5M225 305v5M220 310h5M225 310h5M230 310h5M240 305v5M235 310h5M245 305v5M245 310h5M260 305v5M270 305v5M280 305v5M290 305v5M285 310h5M300 305v5M300 310h5M310 310h5M325 305v5M325 310h5M340 310h5M350 305v5M345 310h5M355 310h5M365 305v5M370 305v5M365 310h5M375 305v5M20 310v5M20 315h5M30 315h5M35 315h5M45 310v5M50 310v5M55 310v5M60 315h5M70 310v5M65 315h5M75 310v5M75 315h5M80 315h5M90 310v5M85 315h5M95 310v5M100 315h5M110 310v5M105 315h5M125 310v5M120 315h5M125 315h5M130 315h5M145 310v5M145 315h5M155 310v5M150 315h5M170 315h5M190 310v5M195 310v5M190 315h5M200 310v5M205 310v5M210 315h5M215 315h5M245 310v5M240 315h5M250 310v5M255 310v5M250 315h5M260 310v5M255 315h5M265 310v5M270 310v5M275 310v5M280 310v5M275 315h5M285 310v5M295 310v5M295 315h5M305 310v5M300 315h5M315 310v5M310 315h5M320 310v5M315 315h5M325 310v5M325 315h5M335 310v5M340 310v5M335 315h5M340 315h5M350 315h5M360 310v5M360 315h5M370 310v5M375 310v5M370 315h5M5 315v5M0 320h5M10 315v5M15 315v5M10 320h5M20 315v5M30 315v5M25 320h5M30 320h5M40 315v5M45 320h5M50 320h5M65 315v5M60 320h5M65 320h5M80 315v5M75 320h5M80 320h5M90 320h5M100 315v5M100 320h5M105 320h5M115 315v5M130 315v5M130 320h5M140 315v5M145 315v5M145 320h5M155 315v5M160 315v5M155 320h5M165 315v5M160 320h5M170 315v5M170 320h5M180 315v5M185 315v5M180 320h5M190 320h5M195 320h5M215 315v5M220 315v5M225 315v5M220 320h5M230 315v5M225 320h5M235 315v5M240 315v5M235 320h5M240 320h5M255 315v5M250 320h5M255 320h5M265 315v5M270 315v5M275 315v5M270 320h5M280 315v5M285 315v5M280 320h5M290 315v5M300 315v5M295 320h5M300 320h5M305 320h5M315 315v5M315 320h5M325 315v5M325 320h5M345 320h5M355 315v5M350 320h5M365 315v5M370 315v5M365 320h5M375 315v5M15 320v5M10 325h5M20 320v5M15 325h5M25 320v5M20 325h5M25 325h5M35 325h5M55 320v5M50 325h5M60 320v5M55 325h5M70 320v5M65 325h5M75 320v5M70 325h5M75 325h5M90 320v5M90 325h5M100 320v5M100 325h5M110 320v5M115 320v5M120 320v5M125 320v5M120 325h5M130 320v5M130 325h5M140 320v5M135 325h5M145 320v5M150 320v5M150 325h5M160 325h5M170 320v5M170 325h5M180 320v5M180 325h5M190 320v5M195 320v5M200 320v5M205 320v5M200 325h5M210 320v5M205 325h5M215 320v5M210 325h5M220 320v5M220 325h5M225 325h5M235 325h5M260 320v5M265 320v5M260 325h5M275 320v5M270 325h5M285 320v5M280 325h5M290 320v5M285 325h5M300 320v5M310 320v5M305 325h5M315 320v5M320 320v5M320 325h5M330 320v5M325 325h5M335 320v5M340 320v5M335 325h5M355 320v5M350 325h5M360 320v5M365 320v5M360 325h5M375 320v5M5 325v5M0 330h5M5 330h5M15 325v5M10 330h5M25 325v5M30 325v5M35 325v5M35 330h5M45 325v5M45 330h5M55 325v5M60 325v5M65 325v5M70 330h5M80 325v5M75 330h5M85 325v5M90 325v5M90 330h5M100 325v5M95 330h5M100 330h5M115 325v5M120 325v5M115 330h5M120 330h5M130 325v5M135 330h5M145 325v5M150 325v5M155 325v5M160 325v5M160 330h5M175 325v5M170 330h5M180 325v5M175 330h5M180 330h5M210 325v5M220 325v5M225 325v5M225 330h5M240 325v5M235 330h5M245 325v5M250 325v5M245 330h5M255 325v5M250 330h5M265 325v5M285 325v5M280 330h5M285 330h5M295 325v5M295 330h5M310 325v5M310 330h5M320 325v5M315 330h5M325 325v5M335 325v5M330 330h5M345 325v5M345 330h5M355 325v5M350 330h5M360 330h5M370 325v5M375 325v5M10 335h5M20 330v5M15 335h5M20 335h5M30 330v5M30 335h5M40 330v5M45 330v5M40 335h5M60 335h5M70 335h5M80 330v5M85 330v5M85 335h5M100 330v5M95 335h5M105 330v5M110 330v5M105 335h5M120 330v5M115 335h5M130 330v5M135 330v5M135 335h5M145 330v5M140 335h5M150 330v5M155 330v5M160 330v5M160 335h5M170 330v5M170 335h5M180 335h5M190 330v5M185 335h5M195 330v5M200 330v5M195 335h5M205 330v5M205 335h5M215 330v5M215 335h5M230 330v5M225 335h5M235 330v5M230 335h5M240 330v5M240 335h5M255 330v5M250 335h5M260 330v5M265 330v5M270 330v5M265 335h5M275 330v5M270 335h5M280 330v5M275 335h5M285 330v5M285 335h5M295 330v5M290 335h5M295 335h5M305 330v5M315 330v5M310 335h5M325 330v5M320 335h5M335 330v5M330 335h5M340 330v5M350 330v5M360 330v5M355 335h5M365 330v5M370 330v5M365 335h5M375 330v5M5 335v5M10 335v5M5 340h5M10 340h5M15 340h5M25 340h5M40 335v5M40 340h5M50 335v5M45 340h5M55 335v5M50 340h5M65 335v5M70 335v5M75 335v5M80 335v5M75 340h5M85 335v5M80 340h5M90 335v5M95 335v5M90 340h5M100 335v5M105 340h5M110 340h5M120 335v5M125 335v5M130 335v5M135 335v5M130 340h5M135 340h5M145 335v5M165 335v5M160 340h5M175 335v5M180 335v5M175 340h5M180 340h5M185 340h5M200 335v5M195 340h5M210 335v5M210 340h5M220 335v5M215 340h5M225 340h5M245 335v5M240 340h5M250 335v5M250 340h5M260 335v5M265 340h5M275 340h5M280 340h5M295 335v5M295 340h5M305 335v5M315 340h5M325 335v5M330 335v5M325 340h5M330 340h5M340 335v5M345 335v5M340 340h5M350 335v5M355 340h5M365 335v5M360 340h5M370 335v5M375 335v5M370 340h5M5 340v5M15 340v5M25 340v5M25 345h5M35 340v5M40 345h5M50 340v5M45 345h5M55 340v5M60 340v5M65 340v5M60 345h5M75 340v5M70 345h5M80 345h5M100 340v5M95 345h5M105 345h5M115 340v5M120 340v5M125 340v5M120 345h5M125 345h5M130 345h5M140 340v5M135 345h5M140 345h5M150 340v5M145 345h5M155 340v5M160 340v5M155 345h5M165 340v5M170 340v5M170 345h5M190 340v5M185 345h5M190 345h5M200 340v5M205 340v5M200 345h5M210 340v5M205 345h5M215 345h5M225 340v5M225 345h5M235 340v5M230 345h5M235 345h5M245 340v5M250 340v5M245 345h5M250 345h5M260 340v5M255 345h5M265 340v5M265 345h5M280 340v5M275 345h5M285 340v5M290 340v5M285 345h5M295 340v5M290 345h5M295 345h5M305 340v5M300 345h5M310 340v5M310 345h5M320 340v5M315 345h5M325 340v5M320 345h5M335 340v5M330 345h5M340 340v5M335 345h5M345 340v5M350 340v5M345 345h5M355 340v5M350 345h5M365 340v5M360 345h5M375 340v5M370 345h5M5 345v5M0 350h5M10 345v5M5 350h5M15 345v5M20 345v5M15 350h5M20 350h5M30 345v5M25 350h5M35 345v5M30 350h5M40 345v5M40 350h5M45 350h5M60 345v5M55 350h5M60 350h5M70 350h5M85 345v5M90 345v5M85 350h5M95 345v5M105 345v5M100 350h5M110 345v5M115 345v5M120 345v5M115 350h5M125 345v5M130 345v5M130 350h5M135 350h5M150 350h5M160 345v5M160 350h5M170 345v5M165 350h5M180 345v5M180 350h5M195 345v5M190 350h5M210 345v5M205 350h5M215 345v5M210 350h5M225 350h5M240 345v5M235 350h5M240 350h5M260 345v5M270 345v5M265 350h5M270 350h5M280 350h5M290 345v5M285 350h5M295 350h5M305 350h5M315 350h5M330 345v5M325 350h5M335 345v5M340 345v5M350 345v5M345 350h5M360 345v5M355 350h5M365 345v5M375 345v5M370 350h5M0 355h5M5 355h5M10 355h5M20 355h5M30 355h5M45 350v5M45 355h5M55 350v5M50 355h5M60 355h5M75 350v5M80 350v5M75 355h5M90 350v5M85 355h5M95 350v5M90 355h5M100 350v5M105 350v5M110 350v5M115 350v5M110 355h5M115 355h5M120 355h5M130 350v5M130 355h5M140 350v5M145 350v5M150 350v5M145 355h5M150 355h5M170 350v5M165 355h5M175 350v5M170 355h5M185 350v5M180 355h5M195 350v5M200 350v5M205 350v5M200 355h5M210 355h5M220 350v5M220 355h5M230 350v5M225 355h5M230 355h5M240 350v5M235 355h5M245 350v5M250 350v5M245 355h5M255 350v5M250 355h5M260 350v5M255 355h5M265 350v5M265 355h5M270 355h5M280 350v5M285 350v5M290 350v5M290 355h5M300 350v5M295 355h5M300 355h5M310 350v5M310 355h5M320 350v5M325 350v5M320 355h5M325 355h5M340 350v5M335 355h5M350 350v5M345 355h5M350 355h5M360 355h5M365 355h5M375 350v5M370 355h5M0 360h5M5 360h5M15 355v5M20 355v5M25 355v5M30 355v5M25 360h5M40 355v5M35 360h5M55 355v5M50 360h5M60 355v5M55 360h5M60 360h5M70 355v5M75 355v5M70 360h5M80 355v5M90 355v5M85 360h5M90 360h5M100 355v5M95 360h5M100 360h5M105 360h5M115 360h5M120 360h5M130 360h5M140 360h5M155 355v5M150 360h5M160 355v5M175 355v5M185 355v5M190 355v5M185 360h5M195 355v5M190 360h5M205 355v5M200 360h5M210 355v5M205 360h5M215 355v5M225 360h5M235 355v5M230 360h5M240 355v5M255 355v5M250 360h5M255 360h5M265 355v5M270 355v5M270 360h5M280 360h5M290 360h5M305 355v5M300 360h5M315 355v5M310 360h5M315 360h5M325 360h5M340 355v5M335 360h5M350 360h5M360 355v5M365 360h5M375 355v5M370 360h5M0 365h5M15 365h5M25 360v5M20 365h5M30 360v5M40 360v5M35 365h5M45 360v5M50 360v5M45 365h5M50 365h5M60 360v5M60 365h5M70 360v5M80 360v5M80 365h5M90 360v5M85 365h5M95 360v5M100 360v5M105 360v5M110 360v5M115 360v5M110 365h5M120 360v5M125 360v5M130 360v5M135 360v5M140 360v5M135 365h5M145 360v5M155 360v5M160 360v5M155 365h5M165 360v5M170 360v5M165 365h5M175 360v5M170 365h5M180 360v5M175 365h5M180 365h5M195 360v5M195 365h5M205 360v5M205 365h5M210 365h5M220 360v5M215 365h5M225 365h5M230 365h5M235 365h5M245 360v5M250 365h5M260 360v5M260 365h5M265 365h5M275 360v5M285 360v5M280 365h5M295 360v5M300 360v5M295 365h5M315 360v5M310 365h5M320 360v5M330 360v5M325 365h5M345 360v5M350 360v5M345 365h5M355 360v5M355 365h5M375 360v5M370 365h5M0 370h5M10 365v5M10 370h5M20 365v5M25 370h5M35 365v5M50 365v5M45 370h5M75 365v5M75 370h5M110 365v5M105 370h5M115 365v5M120 365v5M120 370h5M130 370h5M135 370h5M145 365v5M150 365v5M145 370h5M155 365v5M160 365v5M165 370h5M175 370h5M185 365v5M180 370h5M190 365v5M185 370h5M200 365v5M195 370h5M205 365v5M200 370h5M205 370h5M235 365v5M240 365v5M245 365v5M240 370h5M250 365v5M245 370h5M250 370h5M260 365v5M270 365v5M265 370h5M275 365v5M285 365v5M280 370h5M290 365v5M295 365v5M295 370h5M305 365v5M300 370h5M310 365v5M305 370h5M315 365v5M320 365v5M325 365v5M325 370h5M335 365v5M330 370h5M340 365v5M335 370h5M360 365v5M365 365v5M360 370h5M375 365v5M0 375h5M5 375h5M15 370v5M10 375h5M20 370v5M15 375h5M25 370v5M20 375h5M25 375h5M35 370v5M30 375h5M40 370v5M35 375h5M40 375h5M50 370v5M45 375h5M55 370v5M50 375h5M60 370v5M55 375h5M65 370v5M60 375h5M70 370v5M65 375h5M70 375h5M80 370v5M75 375h5M85 370v5M80 375h5M90 370v5M85 375h5M95 370v5M90 375h5M100 370v5M95 375h5M100 375h5M110 370v5M105 375h5M110 375h5M115 375h5M120 375h5M125 375h5M130 375h5M140 370v5M135 375h5M145 370v5M140 375h5M145 375h5M150 375h5M160 370v5M155 375h5M165 370v5M160 375h5M165 375h5M170 375h5M175 375h5M185 370v5M180 375h5M185 375h5M190 375h5M195 375h5M205 370v5M200 375h5M205 375h5M215 370v5M210 375h5M220 370v5M215 375h5M225 370v5M220 375h5M230 370v5M225 375h5M230 375h5M235 375h5M240 375h5M250 370v5M245 375h5M250 375h5M255 375h5M260 375h5M270 370v5M265 375h5M275 370v5M270 375h5M280 370v5M275 375h5M280 375h5M290 370v5M285 375h5M295 370v5M290 375h5M295 375h5M300 375h5M305 375h5M310 375h5M315 375h5M320 375h5M325 375h5M335 370v5M330 375h5M335 375h5M345 370v5M340 375h5M350 370v5M345 375h5M355 370v5M350 375h5M355 375h5M365 370v5M360 375h5M370 370v5M365 375h5M375 370v5M370 375h5"/><path fill="green" opacity=".3" d="M0 0h5v5H0zM0 5h5v5H0zM5 5h5v5H5zM5 0h5v5H5zM10 0h5v5h-5zM10 5h5v5h-5zM10 10h5v5h-5zM15 10h5v5h-5zM20 10h5v5h-5zM25 10h5v5h-5zM25 5h5v5h-5zM30 5h5v5h-5zM35 5h5v5h-5zM40 5h5v5h-5zM45 5h5v5h-5zM50 5h5v5h-5zM55 5h5v5h-5zM60 5h5v5h-5zM60 10h5v5h-5zM60 15h5v5h-5zM60 20h5v5h-5zM60 25h5v5h-5zM65 25h5v5h-5zM70 25h5v5h-5zM75 25h5v5h-5zM75 30h5v5h-5zM75 35h5v5h-5zM80 35h5v5h-5zM85 35h5v5h-5zM90 35h5v5h-5zM90 40h5v5h-5zM90 45h5v5h-5zM95 45h5v5h-5zM95 50h5v5h-5zM100 50h5v5h-5zM105 50h5v5h-5zM105 55h5v5h-5zM105 60h5v5h-5zM110 60h5v5h-5zM115 60h5v5h-5zM115 65h5v5h-5zM115 70h5v5h-5zM115 75h5v5h-5zM120 75h5v5h-5zM125 75h5v5h-5zM125 80h5v5h-5zM125 85h5v5h-5zM130 85h5v5h-5zM135 85h5v5h-5zM140 85h5v5h-5zM145 85h5v5h-5zM150 85h5v5h-5zM155 85h5v5h-5zM160 85h5v5h-5zM165 85h5v5h-5zM165 90h5v5h-5zM170 90h5v5h-5zM175 90h5v5h-5zM180 90h5v5h-5zM180 95h5v5h-5zM180 100h5v5h-5zM185 100h5v5h-5zM185 105h5v5h-5zM185 110h5v5h-5zM190 110h5v5h-5zM195 110h5v5h-5zM195 115h5v5h-5zM195 120h5v5h-5zM195 125h5v5h-5zM195 130h5v5h-5zM195 135h5v5h-5zM195 140h5v5h-5zM195 145h5v5h-5zM195 150h5v5h-5zM195 155h5v5h-5zM195 160h5v5h-5zM190 160h5v5h-5zM190 165h5v5h-5zM185 165h5v5h-5zM185 170h5v5h-5zM185 175h5v5h-5zM190 175h5v5h-5zM195 175h5v5h-5zM195 180h5v5h-5zM200 180h5v5h-5zM200 185h5v5h-5zM200 190h5v5h-5zM200 195h5v5h-5zM200 200h5v5h-5zM205 200h5v5h-5zM205 205h5v5h-5zM205 210h5v5h-5zM210 210h5v5h-5zM215 210h5v5h-5zM220 210h5v5h-5zM220 215h5v5h-5zM220 220h5v5h-5zM220 225h5v5h-5zM215 225h5v5h-5zM210 225h5v5h-5zM210 230h5v5h-5zM210 235h5v5h-5zM210 240h5v5h-5zM215 240h5v5h-5zM215 245h5v5h-5zM215 250h5v5h-5zM215 255h5v5h-5zM220 255h5v5h-5zM225 255h5v5h-5zM225 260h5v5h-5zM225 265h5v5h-5zM225 270h5v5h-5zM225 275h5v5h-5zM225 280h5v5h-5zM225 285h5v5h-5zM230 285h5v5h-5zM230 290h5v5h-5zM230 295h5v5h-5zM235 295h5v5h-5zM235 290h5v5h-5zM240 290h5v5h-5zM245 290h5v5h-5zM250 290h5v5h-5zM255 290h5v5h-5zM260 290h5v5h-5zM265 290h5v5h-5zM270 290h5v5h-5zM275 290h5v5h-5zM280 290h5v5h-5zM285 290h5v5h-5zM285 295h5v5h-5zM290 295h5v5h-5zM290 300h5v5h-5zM290 305h5v5h-5zM290 310h5v5h-5zM290 315h5v5h-5zM290 320h5v5h-5zM295 320h5v5h-5zM295 325h5v5h-5zM300 325h5v5h-5zM305 325h5v5h-5zM305 330h5v5h-5zM305 335h5v5h-5zM305 340h5v5h-5zM305 345h5v5h-5zM310 345h5v5h-5zM310 350h5v5h-5zM315 350h5v5h-5zM315 355h5v5h-5zM320 355h5v5h-5zM325 355h5v5h-5zM330 355h5v5h-5zM330 360h5v5h-5zM335 360h5v5h-5zM340 360h5v5h-5zM340 355h5v5h-5zM345 355h5v5h-5zM350 355h5v5h-5zM355 355h5v5h-5zM355 360h5v5h-5zM360 360h5v5h-5zM365 360h5v5h-5zM365 365h5v5h-5zM370 365h5v5h-5zM370 370h5v5h-5z"/></svg>