<svg width="64" height="64" viewBox="0 0 64 64" fill="none" xmlns="http://www.w3.org/2000/svg">
<rect width="64" height="64" fill="white"/>
<path d="M4.54102 40.4473V36.7949L16.1621 32.3789V32.0801L4.54102 27.6641V24.0117L20.4453 30.5527V33.9062L4.54102 40.4473ZM33.6934 44.332C30.694 44.332 28.3753 43.5462 26.7373 41.9746C25.1104 40.3919 24.2969 38.123 24.2969 35.168C24.2969 32.2904 25.0661 30.0547 26.6045 28.4609C28.154 26.8672 30.362 26.0703 33.2285 26.0703C34.944 26.0703 36.4105 26.3913 37.6279 27.0332C38.8564 27.6641 39.7308 28.5605 40.251 29.7227L37.5449 31.7646C37.0469 30.9567 36.4105 30.3314 35.6357 29.8887C34.861 29.446 34.0143 29.2246 33.0957 29.2246C31.4355 29.2246 30.1462 29.7282 29.2275 30.7354C28.3089 31.7314 27.8496 33.1536 27.8496 35.002C27.8496 37.0052 28.3864 38.5381 29.46 39.6006C30.5446 40.652 32.0885 41.1777 34.0918 41.1777C34.9108 41.1777 35.7298 41.139 36.5488 41.0615C37.3678 40.984 38.1647 40.8789 38.9395 40.7461L39.3379 43.834C38.4303 44.0332 37.4896 44.166 36.5156 44.2324C35.5527 44.2988 34.612 44.332 33.6934 44.332ZM50.7266 36.4297L49.6973 30.918H51.0586C51.2578 27.6862 52.8737 26.0703 55.9062 26.0703C57.7214 26.0703 59.0384 26.5905 59.8574 27.6309C60.6764 28.6712 61.0859 30.3535 61.0859 32.6777H57.5996C57.5996 31.3939 57.4059 30.4697 57.0186 29.9053C56.6423 29.3408 56.028 29.0586 55.1758 29.0586C53.6816 29.0586 52.5638 29.7005 51.8223 30.9844C51.0918 32.2572 50.7266 34.0723 50.7266 36.4297ZM43.2891 44V40.9121H55.043V44H43.2891ZM47.207 44V26.4023H50.0625L50.7266 31.4492V44H47.207ZM43.9531 29.4902V26.4023H49.8301L50.1621 29.4902H43.9531Z" fill="black"/>
</svg>
