<svg width="64" height="65" viewBox="0 0 64 65" fill="none" xmlns="http://www.w3.org/2000/svg">
<path d="M21.4065 51.5327C21.4065 51.7974 21.1097 52.0091 20.7355 52.0091C20.3097 52.0488 20.0129 51.8371 20.0129 51.5327C20.0129 51.268 20.3097 51.0563 20.6839 51.0563C21.071 51.0166 21.4065 51.2283 21.4065 51.5327ZM17.3935 50.9372C17.3032 51.2019 17.5613 51.5062 17.9484 51.5856C18.2839 51.718 18.671 51.5856 18.7484 51.321C18.8258 51.0563 18.5806 50.7519 18.1935 50.6328C17.8581 50.5402 17.4839 50.6725 17.3935 50.9372ZM23.0968 50.7122C22.7226 50.8048 22.4645 51.0563 22.5032 51.3607C22.5419 51.6253 22.8774 51.7974 23.2645 51.7047C23.6387 51.6121 23.8968 51.3607 23.8581 51.096C23.8194 50.8445 23.471 50.6725 23.0968 50.7122ZM31.5871 0C13.6903 0 0 13.9353 0 32.2906C0 46.967 9.00645 59.526 21.871 63.9461C23.5226 64.2505 41.5 64.8602 41.5 64C41.5 63.1795 45.5 43.7791 45.5 41C45.5 41 15.0323 56.2043 13.1355 50.2755C13.1355 50.2755 11.6645 46.4244 9.54839 45.4319C9.54839 45.4319 11.6478 51.493 14.8091 51.5327C14.8091 51.5327 12.9677 43.6586 14.7355 46.8082C17.5613 51.9165 22.2968 50.4475 24.1419 49.5741C24.4387 47.4567 25.2774 45.9877 26.2065 45.1143C18.9935 44.2938 11.7161 43.2218 11.7161 30.4908C11.7161 26.8515 7.48387 41.8292 9.54839 39.5C7.32903 68.813 31.7323 54.5789 33.5 50C30.7516 50 36.0806 49.2589 33.5 50C36.2484 50 44.9194 45.5907 47.5 46.3318C47.5 46.3318 53.8032 39.6266 56.5 40.5C58.2677 45.0922 55.3355 31.4304 55 32.2906C57.0645 34.633 52.7742 26.8648 52.7742 30.4908C52.7742 43.2615 45.1742 44.2805 37.9613 45.1143C39.1484 46.1597 40.1548 48.1448 40.1548 51.2548C40.1548 55.7146 41.5 62.9148 41.5 64C39.8613 64.3044 40.2878 64.3183 41.5 64C54.4032 59.6064 64 46.967 64 32.2906C64 13.9353 49.4839 0 31.5871 0ZM12.5419 45.6436C12.3742 45.776 12.4129 46.0803 12.6323 46.3318C12.8387 46.5435 13.1355 46.6362 13.3032 46.4641C13.471 46.3318 13.4323 46.0274 13.2129 45.776C13.0065 45.5642 12.7097 45.4716 12.5419 45.6436ZM11.1484 44.5717C11.0581 44.7437 11.1871 44.9555 11.4452 45.0878C11.6516 45.2201 11.9097 45.1804 12 44.9952C12.0903 44.8231 11.9613 44.6114 11.7032 44.479C11.4452 44.3996 11.2387 44.4393 11.1484 44.5717ZM15.329 49.2829C15.1226 49.455 15.2 49.852 15.4968 50.1034C15.7935 50.4078 16.1677 50.4475 16.3355 50.2358C16.5032 50.0637 16.4258 49.6667 16.1677 49.4153C15.8839 49.1109 15.4968 49.0712 15.329 49.2829ZM13.8581 47.3376C13.6516 47.4699 13.6516 47.814 13.8581 48.1184C14.0645 48.4227 14.4129 48.5551 14.5806 48.4227C14.7871 48.2507 14.7871 47.9066 14.5806 47.6022C14.4 47.2979 14.0645 47.1655 13.8581 47.3376Z" fill="white"/>
<path d="M21.4065 51.5327C21.4065 51.7974 21.1097 52.0091 20.7355 52.0091C20.3097 52.0488 20.0129 51.8371 20.0129 51.5327C20.0129 51.268 20.3097 51.0563 20.6839 51.0563C21.071 51.0166 21.4065 51.2283 21.4065 51.5327ZM17.3935 50.9372C17.3032 51.2019 17.5613 51.5062 17.9484 51.5856C18.2839 51.718 18.671 51.5856 18.7484 51.321C18.8258 51.0563 18.5806 50.7519 18.1935 50.6328C17.8581 50.5402 17.4839 50.6725 17.3935 50.9372ZM23.0968 50.7122C22.7226 50.8048 22.4645 51.0563 22.5032 51.3607C22.5419 51.6253 22.8774 51.7974 23.2645 51.7047C23.6387 51.6121 23.8968 51.3607 23.8581 51.096C23.8194 50.8445 23.471 50.6725 23.0968 50.7122ZM31.5871 0C13.6903 0 0 13.9353 0 32.2906C0 46.967 9.00645 59.526 21.871 63.9461C23.5226 64.2505 24.1032 63.205 24.1032 62.3448C24.1032 61.5243 24.0645 56.9983 24.0645 54.2192C24.0645 54.2192 15.0323 56.2043 13.1355 50.2755C13.1355 50.2755 11.6645 46.4244 9.54839 45.4319C9.54839 45.4319 6.59355 43.3542 9.75484 43.3939C9.75484 43.3939 12.9677 43.6586 14.7355 46.8082C17.5613 51.9165 22.2968 50.4475 24.1419 49.5741C24.4387 47.4567 25.2774 45.9877 26.2065 45.1143C18.9935 44.2938 11.7161 43.2218 11.7161 30.4908C11.7161 26.8515 12.6968 25.0253 14.7613 22.6961C14.4258 21.8359 13.329 18.2892 15.0968 13.7103C17.7935 12.8501 24 17.2834 24 17.2834C26.5806 16.5423 29.3548 16.1586 32.1032 16.1586C34.8516 16.1586 37.6258 16.5423 40.2065 17.2834C40.2065 17.2834 46.4129 12.8369 49.1097 13.7103C50.8774 18.3024 49.7806 21.8359 49.4452 22.6961C51.5097 25.0385 52.7742 26.8648 52.7742 30.4908C52.7742 43.2615 45.1742 44.2805 37.9613 45.1143C39.1484 46.1597 40.1548 48.1448 40.1548 51.2548C40.1548 55.7146 40.1161 61.2331 40.1161 62.3183C40.1161 63.1785 40.7097 64.224 42.3484 63.9196C55.2516 59.526 64 46.967 64 32.2906C64 13.9353 49.4839 0 31.5871 0ZM12.5419 45.6436C12.3742 45.776 12.4129 46.0803 12.6323 46.3318C12.8387 46.5435 13.1355 46.6362 13.3032 46.4641C13.471 46.3318 13.4323 46.0274 13.2129 45.776C13.0065 45.5642 12.7097 45.4716 12.5419 45.6436ZM11.1484 44.5717C11.0581 44.7437 11.1871 44.9555 11.4452 45.0878C11.6516 45.2201 11.9097 45.1804 12 44.9952C12.0903 44.8231 11.9613 44.6114 11.7032 44.479C11.4452 44.3996 11.2387 44.4393 11.1484 44.5717ZM15.329 49.2829C15.1226 49.455 15.2 49.852 15.4968 50.1034C15.7935 50.4078 16.1677 50.4475 16.3355 50.2358C16.5032 50.0637 16.4258 49.6667 16.1677 49.4153C15.8839 49.1109 15.4968 49.0712 15.329 49.2829ZM13.8581 47.3376C13.6516 47.4699 13.6516 47.814 13.8581 48.1184C14.0645 48.4227 14.4129 48.5551 14.5806 48.4227C14.7871 48.2507 14.7871 47.9066 14.5806 47.6022C14.4 47.2979 14.0645 47.1655 13.8581 47.3376Z" fill="black"/>
</svg>
